<svg width="28" height="28" viewBox="0 0 28 28" fill="none" xmlns="http://www.w3.org/2000/svg">
<path d="M14 0C6.26232 0 0 6.2615 0 14C0 21.7377 6.2615 28 14 28C21.7377 28 28 21.7385 28 14C28 6.26232 21.7385 0 14 0ZM14 26.0465C7.35755 26.0465 1.95349 20.6425 1.95349 14C1.95349 7.35755 7.35755 1.95349 14 1.95349C20.6425 1.95349 26.0465 7.35755 26.0465 14C26.0465 20.6425 20.6425 26.0465 14 26.0465Z" fill="#3498DB"/>
<path d="M14.1021 11.5742C13.5538 11.5742 13.1094 12.01 13.1094 12.5474V20.5281C13.1094 21.0656 13.5539 21.5013 14.1021 21.5013C14.6503 21.5013 15.0948 21.0656 15.0948 20.5281V12.5475C15.0948 12.01 14.6504 11.5742 14.1021 11.5742Z" fill="#3498DB"/>
<path d="M14.0002 6.90234C13.4607 6.90234 13.0234 7.33968 13.0234 7.87906V9.05118C13.0234 9.59062 13.4608 10.0279 14.0002 10.0279C14.5395 10.0279 14.9769 9.59056 14.9769 9.05118V7.87906C14.9769 7.33968 14.5396 6.90234 14.0002 6.90234Z" fill="#3498DB"/>
</svg>
