<svg width="31" height="26" viewBox="0 0 31 26" fill="none" xmlns="http://www.w3.org/2000/svg">
<path d="M21.7706 24.2423V21.7704C21.7706 20.4596 21.2499 19.2025 20.3231 18.2757C19.3962 17.3488 18.1391 16.8281 16.8283 16.8281H6.94229C5.63151 16.8281 4.37442 17.3488 3.44756 18.2757C2.5207 19.2025 2 20.4596 2 21.7704V24.2423" stroke="#5C5C5C" stroke-width="2.5" stroke-linecap="round" stroke-linejoin="round"/>
<path d="M11.8837 11.8846C14.6132 11.8846 16.826 9.67184 16.826 6.94229C16.826 4.21274 14.6132 2 11.8837 2C9.15414 2 6.94141 4.21274 6.94141 6.94229C6.94141 9.67184 9.15414 11.8846 11.8837 11.8846Z" stroke="#5C5C5C" stroke-width="2.5" stroke-linecap="round" stroke-linejoin="round"/>
<path d="M29.1836 24.2453V21.7749C29.183 20.6796 28.8186 19.6156 28.1476 18.7499C27.4766 17.8842 26.5371 17.2659 25.4766 16.9922" stroke="#5C5C5C" stroke-width="2.5" stroke-linecap="round" stroke-linejoin="round"/>
<path d="M20.5352 2.16016C21.599 2.43181 22.542 3.04995 23.2155 3.91706C23.889 4.78416 24.2546 5.85084 24.2546 6.94878C24.2546 8.04672 23.889 9.11341 23.2155 9.98051C22.542 10.8476 21.599 11.4658 20.5352 11.7374" stroke="#5C5C5C" stroke-width="2.5" stroke-linecap="round" stroke-linejoin="round"/>
</svg>
