<svg width="45" height="15" viewBox="0 0 45 15" fill="none" xmlns="http://www.w3.org/2000/svg">
<path d="M25.7488 2.6H27.2068L30.2608 11H28.9408L28.3588 9.404H24.5968L24.0208 11H22.6948L25.7488 2.6ZM25.0588 8.156H27.8968L26.4748 4.256L25.0588 8.156ZM35.5424 2H36.7904V11H35.5424V10.118C35.3464 10.43 35.0904 10.682 34.7744 10.874C34.4584 11.062 34.0884 11.156 33.6644 11.156C33.2284 11.156 32.8204 11.074 32.4404 10.91C32.0604 10.746 31.7244 10.52 31.4324 10.232C31.1444 9.94 30.9184 9.604 30.7544 9.224C30.5904 8.844 30.5084 8.436 30.5084 8C30.5084 7.564 30.5904 7.156 30.7544 6.776C30.9184 6.392 31.1444 6.056 31.4324 5.768C31.7244 5.476 32.0604 5.248 32.4404 5.084C32.8204 4.92 33.2284 4.838 33.6644 4.838C34.0884 4.838 34.4584 4.934 34.7744 5.126C35.0904 5.314 35.3464 5.562 35.5424 5.87V2ZM33.6764 9.95C34.0284 9.95 34.3364 9.864 34.6004 9.692C34.8644 9.516 35.0684 9.28 35.2124 8.984C35.3604 8.688 35.4344 8.36 35.4344 8C35.4344 7.636 35.3604 7.306 35.2124 7.01C35.0644 6.714 34.8584 6.48 34.5944 6.308C34.3344 6.132 34.0284 6.044 33.6764 6.044C33.3284 6.044 33.0104 6.132 32.7224 6.308C32.4384 6.484 32.2104 6.72 32.0384 7.016C31.8704 7.312 31.7864 7.64 31.7864 8C31.7864 8.364 31.8724 8.694 32.0444 8.99C32.2204 9.282 32.4504 9.516 32.7344 9.692C33.0224 9.864 33.3364 9.95 33.6764 9.95ZM42.8198 2H44.0678V11H42.8198V10.118C42.6238 10.43 42.3678 10.682 42.0518 10.874C41.7358 11.062 41.3658 11.156 40.9418 11.156C40.5058 11.156 40.0978 11.074 39.7178 10.91C39.3378 10.746 39.0018 10.52 38.7098 10.232C38.4218 9.94 38.1958 9.604 38.0318 9.224C37.8678 8.844 37.7858 8.436 37.7858 8C37.7858 7.564 37.8678 7.156 38.0318 6.776C38.1958 6.392 38.4218 6.056 38.7098 5.768C39.0018 5.476 39.3378 5.248 39.7178 5.084C40.0978 4.92 40.5058 4.838 40.9418 4.838C41.3658 4.838 41.7358 4.934 42.0518 5.126C42.3678 5.314 42.6238 5.562 42.8198 5.87V2ZM40.9538 9.95C41.3058 9.95 41.6138 9.864 41.8778 9.692C42.1418 9.516 42.3458 9.28 42.4898 8.984C42.6378 8.688 42.7118 8.36 42.7118 8C42.7118 7.636 42.6378 7.306 42.4898 7.01C42.3418 6.714 42.1358 6.48 41.8718 6.308C41.6118 6.132 41.3058 6.044 40.9538 6.044C40.6058 6.044 40.2878 6.132 39.9998 6.308C39.7158 6.484 39.4878 6.72 39.3158 7.016C39.1478 7.312 39.0638 7.64 39.0638 8C39.0638 8.364 39.1498 8.694 39.3218 8.99C39.4978 9.282 39.7278 9.516 40.0118 9.692C40.2998 9.864 40.6138 9.95 40.9538 9.95Z" fill="white"/>
<path d="M7.5 1.07143C11.0357 1.07143 13.9286 3.96429 13.9286 7.5C13.9286 11.0357 11.0357 13.9286 7.5 13.9286C3.96429 13.9286 1.07143 11.0357 1.07143 7.5C1.07143 3.96429 3.96429 1.07143 7.5 1.07143ZM7.5 0C3.375 0 0 3.375 0 7.5C0 11.625 3.375 15 7.5 15C11.625 15 15 11.625 15 7.5C15 3.375 11.625 0 7.5 0Z" fill="white"/>
<path d="M11 7H8V4H7V7H4V8H7V11H8V8H11V7Z" fill="white"/>
</svg>
