<svg width="22" height="26" viewBox="0 0 22 26" fill="none" xmlns="http://www.w3.org/2000/svg">
<path d="M21.5389 20.2618C21.144 21.1702 20.6765 22.0063 20.1346 22.7752C19.3963 23.8231 18.7917 24.5484 18.3258 24.9514C17.6036 25.6126 16.8297 25.9511 16.001 25.9704C15.4061 25.9704 14.6887 25.802 13.8536 25.4601C13.0157 25.1198 12.2458 24.9514 11.5417 24.9514C10.8033 24.9514 10.0114 25.1198 9.16436 25.4601C8.31602 25.802 7.63261 25.9801 7.11009 25.9978C6.31545 26.0313 5.52339 25.6831 4.73275 24.9514C4.22814 24.5132 3.59698 23.762 2.84084 22.6981C2.02959 21.5618 1.36264 20.2442 0.840114 18.742C0.280522 17.1195 0 15.5483 0 14.0272C0 12.2848 0.378224 10.7819 1.13579 9.52258C1.73118 8.51103 2.52325 7.71307 3.51459 7.12731C4.50593 6.54152 5.57707 6.243 6.73059 6.2239C7.36177 6.2239 8.18946 6.41826 9.21804 6.80023C10.2437 7.18346 10.9023 7.37782 11.191 7.37782C11.4069 7.37782 12.1385 7.15057 13.3788 6.69751C14.5517 6.27736 15.5415 6.10338 16.3525 6.17191C18.5499 6.34845 20.2008 7.21075 21.2986 8.76429C19.3334 9.94966 18.3613 11.6099 18.3806 13.7397C18.3984 15.3987 19.0029 16.7792 20.1912 17.8754C20.7295 18.3841 21.331 18.7773 22 19.0566C21.855 19.4754 21.7017 19.8767 21.5389 20.2618ZM16.4992 0.520146C16.4992 1.82044 16.022 3.03452 15.0708 4.15827C13.9229 5.49416 12.5345 6.26612 11.0289 6.14431C11.0097 5.98832 10.9985 5.82413 10.9985 5.6516C10.9985 4.40333 11.5444 3.06742 12.5139 1.97514C12.9978 1.42209 13.6134 0.962245 14.3598 0.595415C15.1046 0.234059 15.8092 0.0342213 16.4718 0C16.4911 0.173829 16.4992 0.347669 16.4992 0.520129V0.520146Z" fill="black"/>
</svg>
