<svg width="14" height="14" viewBox="0 0 14 14" fill="none" xmlns="http://www.w3.org/2000/svg">
<g clip-path="url(#clip0_2978_6223)">
<path d="M6.99935 13.2712C3.54018 13.2712 0.728516 10.4595 0.728516 7.00033C0.728516 3.54116 3.54018 0.729492 6.99935 0.729492C10.4585 0.729492 13.2702 3.54116 13.2702 7.00033C13.2702 10.4595 10.4585 13.2712 6.99935 13.2712ZM6.99935 1.60449C4.02435 1.60449 1.60352 4.02533 1.60352 7.00033C1.60352 9.97533 4.02435 12.3962 6.99935 12.3962C9.97435 12.3962 12.3952 9.97533 12.3952 7.00033C12.3952 4.02533 9.97435 1.60449 6.99935 1.60449Z" fill="#6FC7B7" stroke="#6FC7B7" stroke-width="0.2"/>
<path d="M7 9.47949C6.76083 9.47949 6.5625 9.28116 6.5625 9.04199V5.54199C6.5625 5.30283 6.76083 5.10449 7 5.10449C7.23917 5.10449 7.4375 5.30283 7.4375 5.54199V9.04199C7.4375 9.28116 7.23917 9.47949 7 9.47949Z" fill="#6FC7B7" stroke="#6FC7B7" stroke-width="0.2"/>
<path d="M8.75061 7.146C8.63978 7.146 8.52895 7.10517 8.44145 7.01767L7.00061 5.57684L5.55978 7.01767C5.39061 7.18684 5.11061 7.18684 4.94145 7.01767C4.86008 6.93534 4.81445 6.82425 4.81445 6.7085C4.81445 6.59275 4.86008 6.48167 4.94145 6.39934L6.69145 4.64934C6.86061 4.48017 7.14061 4.48017 7.30978 4.64934L9.05978 6.39934C9.22895 6.5685 9.22895 6.8485 9.05978 7.01767C8.97228 7.10517 8.86145 7.146 8.75061 7.146Z" fill="#6FC7B7" stroke="#6FC7B7" stroke-width="0.2"/>
</g>
<defs>
<clipPath id="clip0_2978_6223">
<rect width="14" height="14" fill="white"/>
</clipPath>
</defs>
</svg>
