<svg width="20" height="20" viewBox="0 0 20 20" fill="none" xmlns="http://www.w3.org/2000/svg">
<path d="M13.7042 2.99266C13.6139 2.90212 13.5066 2.83029 13.3885 2.78127C13.2703 2.73226 13.1437 2.70703 13.0158 2.70703C12.888 2.70703 12.7613 2.73226 12.6432 2.78127C12.5251 2.83029 12.4178 2.90212 12.3275 2.99266L5.86418 9.45599C5.79207 9.52795 5.73487 9.61341 5.69584 9.7075C5.65681 9.80159 5.63672 9.90246 5.63672 10.0043C5.63672 10.1062 5.65681 10.2071 5.69584 10.3011C5.73487 10.3952 5.79207 10.4807 5.86418 10.5527L12.3275 17.016C12.7086 17.3971 13.3231 17.3971 13.7042 17.016C14.0853 16.6349 14.0853 16.0204 13.7042 15.6393L8.07306 10.0004L13.712 4.36155C14.0853 3.98821 14.0853 3.36599 13.7042 2.99266Z" fill="#1E232C" stroke="#1E232C" stroke-width="0.2"/>
</svg>
