<svg width="14" height="14" viewBox="0 0 14 14" fill="none" xmlns="http://www.w3.org/2000/svg">
<g clip-path="url(#clip0_2978_6431)">
<path d="M6.99935 0.728842C3.54018 0.728842 0.728516 3.54051 0.728516 6.99967C0.728516 10.4588 3.54018 13.2705 6.99935 13.2705C10.4585 13.2705 13.2702 10.4588 13.2702 6.99967C13.2702 3.54051 10.4585 0.728842 6.99935 0.728842ZM6.99935 12.3955C4.02435 12.3955 1.60352 9.97467 1.60352 6.99967C1.60352 4.02467 4.02435 1.60384 6.99935 1.60384C9.97435 1.60384 12.3952 4.02467 12.3952 6.99967C12.3952 9.97467 9.97435 12.3955 6.99935 12.3955Z" fill="#6FC7B7" stroke="#6FC7B7" stroke-width="0.2"/>
<path d="M7 4.52051C6.76083 4.52051 6.5625 4.71884 6.5625 4.95801V8.45801C6.5625 8.69717 6.76083 8.89551 7 8.89551C7.23917 8.89551 7.4375 8.69717 7.4375 8.45801V4.95801C7.4375 4.71884 7.23917 4.52051 7 4.52051Z" fill="#6FC7B7" stroke="#6FC7B7" stroke-width="0.2"/>
<path d="M8.75061 6.854C8.63978 6.854 8.52895 6.89483 8.44145 6.98233L7.00061 8.42316L5.55978 6.98233C5.39061 6.81316 5.11061 6.81316 4.94145 6.98233C4.86008 7.06466 4.81445 7.17575 4.81445 7.2915C4.81445 7.40725 4.86008 7.51833 4.94145 7.60066L6.69145 9.35066C6.86061 9.51983 7.14061 9.51983 7.30978 9.35066L9.05978 7.60066C9.22895 7.4315 9.22895 7.1515 9.05978 6.98233C8.97228 6.89483 8.86145 6.854 8.75061 6.854Z" fill="#6FC7B7" stroke="#6FC7B7" stroke-width="0.2"/>
</g>
<defs>
<clipPath id="clip0_2978_6431">
<rect width="14" height="14" fill="white" transform="matrix(1 0 0 -1 0 14)"/>
</clipPath>
</defs>
</svg>
