<svg width="21" height="21" viewBox="0 0 21 21" fill="none" xmlns="http://www.w3.org/2000/svg">
<path d="M1.92411 2.32133C2.02571 2.21947 2.14641 2.13866 2.27929 2.08352C2.41217 2.02838 2.55462 2 2.69849 2C2.84235 2 2.9848 2.02838 3.11768 2.08352C3.25056 2.13866 3.37126 2.21947 3.47286 2.32133L10.7441 9.59258C10.8252 9.67353 10.8896 9.76968 10.9335 9.87553C10.9774 9.98138 11 10.0949 11 10.2095C11 10.3241 10.9774 10.4375 10.9335 10.5434C10.8896 10.6492 10.8252 10.7454 10.7441 10.8263L3.47286 18.0976C3.04411 18.5263 2.35286 18.5263 1.92411 18.0976C1.49536 17.6688 1.49536 16.9776 1.92411 16.5488L8.25911 10.2051L1.91536 3.86133C1.49536 3.44133 1.49536 2.74133 1.92411 2.32133Z" fill="#1E232C" stroke="#1E232C" stroke-width="0.2"/>
<path d="M17.6775 2.32133C17.5759 2.21947 17.4552 2.13866 17.3223 2.08352C17.1894 2.02838 17.0469 2 16.9031 2C16.7592 2 16.6168 2.02838 16.4839 2.08352C16.351 2.13866 16.2303 2.21947 16.1287 2.32133L8.85745 9.59258C8.77634 9.67353 8.71198 9.76968 8.66807 9.87553C8.62416 9.98138 8.60156 10.0949 8.60156 10.2095C8.60156 10.3241 8.62416 10.4375 8.66807 10.5434C8.71198 10.6492 8.77634 10.7454 8.85745 10.8263L16.1287 18.0976C16.5575 18.5263 17.2487 18.5263 17.6775 18.0976C18.1062 17.6688 18.1062 16.9776 17.6775 16.5488L11.3425 10.2051L17.6862 3.86133C18.1062 3.44133 18.1062 2.74133 17.6775 2.32133Z" fill="#1E232C" stroke="#1E232C" stroke-width="0.2"/>
</svg>
