<svg width="28" height="27" viewBox="0 0 28 27" fill="none" xmlns="http://www.w3.org/2000/svg">
<path fill-rule="evenodd" clip-rule="evenodd" d="M23.007 5.78262C23.2583 5.7875 23.4609 5.99007 23.4658 6.2414V20.9226C23.4658 21.1811 23.2563 21.3906 22.9978 21.3906H4.65547C4.40061 21.3856 4.19668 21.1776 4.19668 20.9226V6.2414C4.20156 5.99007 4.40414 5.7875 4.65547 5.78262H23.007ZM23.007 4.40625H4.65547C3.64194 4.40625 2.82031 5.22788 2.82031 6.24141V20.9226C2.82031 21.9362 3.64194 22.7578 4.65547 22.7578H23.007C24.0205 22.7578 24.8422 21.9362 24.8422 20.9226V6.2414C24.8422 5.22788 24.0205 4.40625 23.007 4.40625Z" fill="#212529"/>
<path d="M3.88672 8.98438H23.6238" stroke="#212529" stroke-width="1.25" stroke-linecap="round" stroke-linejoin="round"/>
<path d="M3.91406 12.6641H23.6512" stroke="#212529" stroke-width="1.25" stroke-linecap="round" stroke-linejoin="round"/>
<path d="M7.40625 18.168H12.9117" stroke="#212529" stroke-width="1.25" stroke-linecap="round" stroke-linejoin="round"/>
<path d="M18.418 18.168H20.2531" stroke="#212529" stroke-width="1.25" stroke-linecap="round" stroke-linejoin="round"/>
</svg>
