<svg width="30" height="26" viewBox="0 0 30 26" fill="none" xmlns="http://www.w3.org/2000/svg">
<path d="M18 8C18 8 20.5483 8.88534 21.3977 9.77068C22.2471 10.656 23.0965 13.3121 23.0965 13.3121" stroke="white" stroke-width="2.5" stroke-linejoin="round"/>
<path d="M19.0977 8C19.0977 8 16.5494 8.88534 15.7 9.77068C14.8506 10.656 14.0011 13.3121 14.0011 13.3121" stroke="white" stroke-width="2.5" stroke-linejoin="round"/>
<path d="M22.0001 24.0003C23.1048 24.0003 24.0003 23.1048 24.0003 22.0001C24.0003 20.8955 23.1048 20 22.0001 20C20.8955 20 20 20.8955 20 22.0001C20 23.1048 20.8955 24.0003 22.0001 24.0003Z" stroke="white" stroke-width="2.5" stroke-linecap="round" stroke-linejoin="round"/>
<path d="M14.004 24.0003C15.1087 24.0003 16.0042 23.1048 16.0042 22.0001C16.0042 20.8955 15.1087 20 14.004 20C12.8994 20 12.0039 20.8955 12.0039 22.0001C12.0039 23.1048 12.8994 24.0003 14.004 24.0003Z" stroke="white" stroke-width="2.5" stroke-linecap="round" stroke-linejoin="round"/>
<path d="M2 2H6.72758L9.89506 16.2832C10.0031 16.7744 10.2992 17.2155 10.7313 17.5295C11.1634 17.8435 11.7042 18.0102 12.2588 18.0006H23.7469C24.3015 18.0102 24.8423 17.8435 25.2744 17.5295C25.7066 17.2155 26.0026 16.7744 26.1107 16.2832L28.0017 7.33355H7.90947" stroke="white" stroke-width="2.5" stroke-linecap="round" stroke-linejoin="round"/>
</svg>
