<svg width="28" height="28" viewBox="0 0 28 28" fill="none" xmlns="http://www.w3.org/2000/svg">
<path d="M25.668 6.9987V9.82203C25.668 11.6654 24.5013 12.832 22.658 12.832H18.668V4.67703C18.668 3.38203 19.7296 2.33203 21.0246 2.33203C22.2963 2.3437 23.463 2.85703 24.303 3.69703C25.143 4.5487 25.668 5.71536 25.668 6.9987Z" stroke="#5C5C5C" stroke-width="2.5" stroke-miterlimit="10" stroke-linecap="round" stroke-linejoin="round"/>
<path d="M2.33203 8.16536V24.4987C2.33203 25.467 3.4287 26.0154 4.1987 25.432L6.1937 23.9387C6.66036 23.5887 7.3137 23.6354 7.7337 24.0554L9.67036 26.0037C10.1254 26.4587 10.872 26.4587 11.327 26.0037L13.287 24.0437C13.6954 23.6354 14.3487 23.5887 14.8037 23.9387L16.7987 25.432C17.5687 26.0037 18.6654 25.4554 18.6654 24.4987V4.66536C18.6654 3.38203 19.7154 2.33203 20.9987 2.33203H6.9987C3.4987 2.33203 2.33203 4.42036 2.33203 6.9987V8.16536Z" stroke="#5C5C5C" stroke-width="2.5" stroke-miterlimit="10" stroke-linecap="round" stroke-linejoin="round"/>
<path d="M10.5 15.1784H14M10.5 10.5117H14" stroke="#5C5C5C" stroke-width="2.5" stroke-linecap="round" stroke-linejoin="round"/>
<path d="M6.99609 15.1667H7.00659M6.99609 10.5H7.00659" stroke="#5C5C5C" stroke-width="2.5" stroke-linecap="round" stroke-linejoin="round"/>
</svg>
