<svg width="135" height="22" viewBox="0 0 135 22" fill="none" xmlns="http://www.w3.org/2000/svg">
<path d="M6.9974 13.3307C8.28606 13.3307 9.33073 12.2861 9.33073 10.9974C9.33073 9.70873 8.28606 8.66406 6.9974 8.66406C5.70873 8.66406 4.66406 9.70873 4.66406 10.9974C4.66406 12.2861 5.70873 13.3307 6.9974 13.3307Z" fill="#6FC7B7"/>
<path d="M7.58073 6.37098V5.16406H6.41406V6.37098C5.38757 6.50204 4.43363 6.97016 3.70189 7.70189C2.97016 8.43363 2.50204 9.38757 2.37098 10.4141H1.16406V11.5807H2.37098C2.50185 12.6073 2.96991 13.5613 3.70168 14.2931C4.43345 15.0249 5.38749 15.4929 6.41406 15.6238V16.8307H7.58073V15.6238C8.60734 15.493 9.56144 15.025 10.2932 14.2932C11.025 13.5614 11.493 12.6073 11.6238 11.5807H12.8307V10.4141H11.6238C11.4929 9.38749 11.0249 8.43345 10.2931 7.70168C9.56135 6.96991 8.6073 6.50185 7.58073 6.37098ZM6.9974 14.4974C5.06715 14.4974 3.4974 12.9276 3.4974 10.9974C3.4974 9.06715 5.06715 7.4974 6.9974 7.4974C8.92765 7.4974 10.4974 9.06715 10.4974 10.9974C10.4974 12.9276 8.92765 14.4974 6.9974 14.4974Z" fill="#6FC7B7"/>
<path d="M22.37 15.13C21.81 15.13 21.3217 14.9933 20.905 14.72C20.4917 14.4467 20.17 14.08 19.94 13.62C19.7133 13.1567 19.6 12.6433 19.6 12.08V8H20.64V12.08C20.64 12.4467 20.7067 12.7833 20.84 13.09C20.9767 13.3933 21.1733 13.6367 21.43 13.82C21.69 14 22.0033 14.09 22.37 14.09C22.7467 14.09 23.0633 14 23.32 13.82C23.5767 13.6367 23.77 13.3933 23.9 13.09C24.0333 12.7833 24.1 12.4467 24.1 12.08V8H25.14V12.08C25.14 12.5033 25.075 12.9 24.945 13.27C24.815 13.6367 24.6283 13.96 24.385 14.24C24.1417 14.52 23.85 14.7383 23.51 14.895C23.17 15.0517 22.79 15.13 22.37 15.13ZM27.8383 15.095C27.5749 15.0783 27.3183 15.025 27.0683 14.935C26.8183 14.845 26.5983 14.7233 26.4083 14.57C26.2216 14.4133 26.0816 14.23 25.9883 14.02L26.8733 13.64C26.9166 13.73 26.9916 13.8183 27.0983 13.905C27.2083 13.9917 27.3366 14.0633 27.4833 14.12C27.6299 14.1733 27.7833 14.2 27.9433 14.2C28.0999 14.2 28.2449 14.1783 28.3783 14.135C28.5149 14.0883 28.6266 14.0183 28.7133 13.925C28.7999 13.8317 28.8433 13.72 28.8433 13.59C28.8433 13.4433 28.7933 13.33 28.6933 13.25C28.5966 13.1667 28.4749 13.1033 28.3283 13.06C28.1816 13.0167 28.0349 12.975 27.8883 12.935C27.5616 12.8617 27.2616 12.7617 26.9883 12.635C26.7183 12.505 26.5033 12.34 26.3433 12.14C26.1833 11.9367 26.1033 11.6883 26.1033 11.395C26.1033 11.075 26.1899 10.7983 26.3633 10.565C26.5366 10.3283 26.7633 10.1467 27.0433 10.02C27.3266 9.89333 27.6283 9.83 27.9483 9.83C28.3483 9.83 28.7149 9.915 29.0483 10.085C29.3816 10.255 29.6366 10.4883 29.8133 10.785L28.9883 11.275C28.9383 11.175 28.8633 11.085 28.7633 11.005C28.6633 10.925 28.5499 10.8617 28.4233 10.815C28.2966 10.765 28.1649 10.7367 28.0283 10.73C27.8583 10.7233 27.6999 10.7433 27.5533 10.79C27.4099 10.8333 27.2949 10.9033 27.2083 11C27.1216 11.0967 27.0783 11.22 27.0783 11.37C27.0783 11.5167 27.1299 11.6267 27.2333 11.7C27.3366 11.77 27.4666 11.8267 27.6233 11.87C27.7833 11.9133 27.9466 11.9617 28.1133 12.015C28.4099 12.1083 28.6883 12.2233 28.9483 12.36C29.2083 12.4933 29.4183 12.6583 29.5783 12.855C29.7383 13.0517 29.8149 13.2917 29.8083 13.575C29.8083 13.8883 29.7133 14.1633 29.5233 14.4C29.3366 14.6367 29.0933 14.8167 28.7933 14.94C28.4933 15.0633 28.1749 15.115 27.8383 15.095ZM32.7961 15.13C32.3361 15.13 31.9161 15.0117 31.5361 14.775C31.1594 14.5383 30.8578 14.2217 30.6311 13.825C30.4078 13.425 30.2961 12.9833 30.2961 12.5C30.2961 12.1333 30.3611 11.7917 30.4911 11.475C30.6211 11.155 30.7994 10.875 31.0261 10.635C31.2561 10.3917 31.5228 10.2017 31.8261 10.065C32.1294 9.92833 32.4528 9.86 32.7961 9.86C33.1794 9.86 33.5311 9.94 33.8511 10.1C34.1711 10.2567 34.4444 10.475 34.6711 10.755C34.8978 11.0317 35.0644 11.3517 35.1711 11.715C35.2778 12.075 35.3094 12.4583 35.2661 12.865H31.4111C31.4544 13.095 31.5378 13.3033 31.6611 13.49C31.7878 13.6733 31.9478 13.8183 32.1411 13.925C32.3378 14.0317 32.5561 14.0867 32.7961 14.09C33.0494 14.09 33.2794 14.0267 33.4861 13.9C33.6961 13.7733 33.8678 13.5983 34.0011 13.375L35.0561 13.62C34.8561 14.0633 34.5544 14.4267 34.1511 14.71C33.7478 14.99 33.2961 15.13 32.7961 15.13ZM31.3761 12.07H34.2161C34.1828 11.83 34.0978 11.6133 33.9611 11.42C33.8278 11.2233 33.6594 11.0683 33.4561 10.955C33.2561 10.8383 33.0361 10.78 32.7961 10.78C32.5594 10.78 32.3394 10.8367 32.1361 10.95C31.9361 11.0633 31.7694 11.2183 31.6361 11.415C31.5061 11.6083 31.4194 11.8267 31.3761 12.07ZM42.8744 8H44.0994L41.7094 11.84V15H40.6694V11.84L38.2844 8H39.5094L41.1894 10.705L42.8744 8ZM46.2336 15.13C45.7736 15.13 45.3536 15.0117 44.9736 14.775C44.5969 14.5383 44.2953 14.2217 44.0686 13.825C43.8453 13.425 43.7336 12.9833 43.7336 12.5C43.7336 12.1333 43.7986 11.7917 43.9286 11.475C44.0586 11.155 44.2369 10.875 44.4636 10.635C44.6936 10.3917 44.9603 10.2017 45.2636 10.065C45.5669 9.92833 45.8903 9.86 46.2336 9.86C46.6936 9.86 47.1119 9.97833 47.4886 10.215C47.8686 10.4517 48.1703 10.77 48.3936 11.17C48.6203 11.57 48.7336 12.0133 48.7336 12.5C48.7336 12.8633 48.6686 13.2033 48.5386 13.52C48.4086 13.8367 48.2286 14.1167 47.9986 14.36C47.7719 14.6 47.5069 14.7883 47.2036 14.925C46.9036 15.0617 46.5803 15.13 46.2336 15.13ZM46.2336 14.09C46.5103 14.09 46.7586 14.0167 46.9786 13.87C47.1986 13.7233 47.3719 13.53 47.4986 13.29C47.6286 13.0467 47.6936 12.7833 47.6936 12.5C47.6936 12.21 47.6269 11.9433 47.4936 11.7C47.3636 11.4567 47.1886 11.2633 46.9686 11.12C46.7486 10.9733 46.5036 10.9 46.2336 10.9C45.9603 10.9 45.7119 10.9733 45.4886 11.12C45.2686 11.2667 45.0936 11.4617 44.9636 11.705C44.8369 11.9483 44.7736 12.2133 44.7736 12.5C44.7736 12.7967 44.8403 13.065 44.9736 13.305C45.1069 13.545 45.2836 13.7367 45.5036 13.88C45.7269 14.02 45.9703 14.09 46.2336 14.09ZM49.2438 13.125V10H50.2838V12.87C50.2838 13.0933 50.3388 13.2967 50.4488 13.48C50.5588 13.6633 50.7054 13.81 50.8888 13.92C51.0721 14.0267 51.2738 14.08 51.4938 14.08C51.7171 14.08 51.9188 14.0267 52.0988 13.92C52.2821 13.81 52.4271 13.6633 52.5338 13.48C52.6438 13.2967 52.6988 13.0933 52.6988 12.87V10H53.7388L53.7438 15H52.7038L52.6988 14.46C52.5288 14.6667 52.3171 14.83 52.0638 14.95C51.8104 15.07 51.5388 15.13 51.2488 15.13C50.8788 15.13 50.5421 15.04 50.2388 14.86C49.9354 14.68 49.6938 14.4383 49.5138 14.135C49.3338 13.8317 49.2438 13.495 49.2438 13.125ZM54.7465 15V10H55.7865V10.53C55.9598 10.3233 56.1732 10.16 56.4265 10.04C56.6798 9.92 56.9532 9.86 57.2465 9.86C57.4332 9.86 57.6182 9.885 57.8015 9.935L57.3865 10.985C57.2565 10.935 57.1265 10.91 56.9965 10.91C56.7765 10.91 56.5748 10.965 56.3915 11.075C56.2082 11.1817 56.0615 11.3267 55.9515 11.51C55.8415 11.6933 55.7865 11.8967 55.7865 12.12V15H54.7465ZM64.1486 15.13C63.6753 15.13 63.2303 15.0367 62.8136 14.85C62.3969 14.66 62.0303 14.4 61.7136 14.07C61.4003 13.7367 61.1536 13.35 60.9736 12.91C60.7969 12.47 60.7086 12 60.7086 11.5C60.7086 11 60.7969 10.53 60.9736 10.09C61.1536 9.65 61.4003 9.265 61.7136 8.935C62.0303 8.60167 62.3969 8.34167 62.8136 8.155C63.2303 7.965 63.6753 7.87 64.1486 7.87C64.7153 7.87 65.2369 8.00167 65.7136 8.265C66.1903 8.52833 66.5853 8.87833 66.8986 9.315L65.9736 9.81C65.7569 9.53667 65.4886 9.31833 65.1686 9.155C64.8486 8.99167 64.5086 8.91 64.1486 8.91C63.8153 8.91 63.5036 8.97833 63.2136 9.115C62.9236 9.25167 62.6686 9.43833 62.4486 9.675C62.2286 9.91167 62.0569 10.1867 61.9336 10.5C61.8103 10.8133 61.7486 11.1467 61.7486 11.5C61.7486 11.8567 61.8103 12.1917 61.9336 12.505C62.0569 12.815 62.2286 13.09 62.4486 13.33C62.6719 13.5667 62.9286 13.7533 63.2186 13.89C63.5086 14.0233 63.8186 14.09 64.1486 14.09C64.5153 14.09 64.8569 14.0083 65.1736 13.845C65.4936 13.6783 65.7603 13.4583 65.9736 13.185L66.8986 13.69C66.5853 14.1267 66.1903 14.4767 65.7136 14.74C65.2369 15 64.7153 15.13 64.1486 15.13ZM67.6422 13.125V10H68.6822V12.87C68.6822 13.0933 68.7372 13.2967 68.8472 13.48C68.9572 13.6633 69.1039 13.81 69.2872 13.92C69.4705 14.0267 69.6722 14.08 69.8922 14.08C70.1155 14.08 70.3172 14.0267 70.4972 13.92C70.6805 13.81 70.8255 13.6633 70.9322 13.48C71.0422 13.2967 71.0972 13.0933 71.0972 12.87V10H72.1372L72.1422 15H71.1022L71.0972 14.46C70.9272 14.6667 70.7155 14.83 70.4622 14.95C70.2089 15.07 69.9372 15.13 69.6472 15.13C69.2772 15.13 68.9405 15.04 68.6372 14.86C68.3339 14.68 68.0922 14.4383 67.9122 14.135C67.7322 13.8317 67.6422 13.495 67.6422 13.125ZM73.1449 15V10H74.1849V10.53C74.3583 10.3233 74.5716 10.16 74.8249 10.04C75.0783 9.92 75.3516 9.86 75.6449 9.86C75.8316 9.86 76.0166 9.885 76.1999 9.935L75.7849 10.985C75.6549 10.935 75.5249 10.91 75.3949 10.91C75.1749 10.91 74.9733 10.965 74.7899 11.075C74.6066 11.1817 74.4599 11.3267 74.3499 11.51C74.2399 11.6933 74.1849 11.8967 74.1849 12.12V15H73.1449ZM76.8168 15V10H77.8568V10.53C78.0301 10.3233 78.2435 10.16 78.4968 10.04C78.7501 9.92 79.0235 9.86 79.3168 9.86C79.5035 9.86 79.6885 9.885 79.8718 9.935L79.4568 10.985C79.3268 10.935 79.1968 10.91 79.0668 10.91C78.8468 10.91 78.6451 10.965 78.4618 11.075C78.2785 11.1817 78.1318 11.3267 78.0218 11.51C77.9118 11.6933 77.8568 11.8967 77.8568 12.12V15H76.8168ZM82.4152 15.13C81.9552 15.13 81.5352 15.0117 81.1552 14.775C80.7786 14.5383 80.4769 14.2217 80.2502 13.825C80.0269 13.425 79.9152 12.9833 79.9152 12.5C79.9152 12.1333 79.9802 11.7917 80.1102 11.475C80.2402 11.155 80.4186 10.875 80.6452 10.635C80.8752 10.3917 81.1419 10.2017 81.4452 10.065C81.7486 9.92833 82.0719 9.86 82.4152 9.86C82.7986 9.86 83.1502 9.94 83.4702 10.1C83.7902 10.2567 84.0636 10.475 84.2902 10.755C84.5169 11.0317 84.6836 11.3517 84.7902 11.715C84.8969 12.075 84.9286 12.4583 84.8852 12.865H81.0302C81.0736 13.095 81.1569 13.3033 81.2802 13.49C81.4069 13.6733 81.5669 13.8183 81.7602 13.925C81.9569 14.0317 82.1752 14.0867 82.4152 14.09C82.6686 14.09 82.8986 14.0267 83.1052 13.9C83.3152 13.7733 83.4869 13.5983 83.6202 13.375L84.6752 13.62C84.4752 14.0633 84.1736 14.4267 83.7702 14.71C83.3669 14.99 82.9152 15.13 82.4152 15.13ZM80.9952 12.07H83.8352C83.8019 11.83 83.7169 11.6133 83.5802 11.42C83.4469 11.2233 83.2786 11.0683 83.0752 10.955C82.8752 10.8383 82.6552 10.78 82.4152 10.78C82.1786 10.78 81.9586 10.8367 81.7552 10.95C81.5552 11.0633 81.3886 11.2183 81.2552 11.415C81.1252 11.6083 81.0386 11.8267 80.9952 12.07ZM90.2133 11.865V15H89.1733V12.12C89.1733 11.8967 89.1183 11.6933 89.0083 11.51C88.9016 11.3267 88.7566 11.1817 88.5733 11.075C88.3933 10.965 88.1899 10.91 87.9633 10.91C87.7433 10.91 87.5416 10.965 87.3583 11.075C87.1749 11.1817 87.0283 11.3267 86.9183 11.51C86.8083 11.6933 86.7533 11.8967 86.7533 12.12V15H85.7133V10H86.7533V10.53C86.9266 10.3233 87.1399 10.16 87.3933 10.04C87.6466 9.92 87.9199 9.86 88.2133 9.86C88.5833 9.86 88.9199 9.95 89.2233 10.13C89.5266 10.31 89.7666 10.5517 89.9433 10.855C90.1233 11.1583 90.2133 11.495 90.2133 11.865ZM93.8513 11.04H92.8013L92.7963 15H91.7563L91.7613 11.04H90.9663V10H91.7613L91.7563 8.43H92.7963L92.8013 10H93.8513V11.04ZM97.1488 15V8H98.1888V13.96H101.204V15H97.1488ZM104.056 15.13C103.596 15.13 103.176 15.0117 102.796 14.775C102.419 14.5383 102.118 14.2217 101.891 13.825C101.668 13.425 101.556 12.9833 101.556 12.5C101.556 12.1333 101.621 11.7917 101.751 11.475C101.881 11.155 102.059 10.875 102.286 10.635C102.516 10.3917 102.783 10.2017 103.086 10.065C103.389 9.92833 103.713 9.86 104.056 9.86C104.516 9.86 104.934 9.97833 105.311 10.215C105.691 10.4517 105.993 10.77 106.216 11.17C106.443 11.57 106.556 12.0133 106.556 12.5C106.556 12.8633 106.491 13.2033 106.361 13.52C106.231 13.8367 106.051 14.1167 105.821 14.36C105.594 14.6 105.329 14.7883 105.026 14.925C104.726 15.0617 104.403 15.13 104.056 15.13ZM104.056 14.09C104.333 14.09 104.581 14.0167 104.801 13.87C105.021 13.7233 105.194 13.53 105.321 13.29C105.451 13.0467 105.516 12.7833 105.516 12.5C105.516 12.21 105.449 11.9433 105.316 11.7C105.186 11.4567 105.011 11.2633 104.791 11.12C104.571 10.9733 104.326 10.9 104.056 10.9C103.783 10.9 103.534 10.9733 103.311 11.12C103.091 11.2667 102.916 11.4617 102.786 11.705C102.659 11.9483 102.596 12.2133 102.596 12.5C102.596 12.7967 102.663 13.065 102.796 13.305C102.929 13.545 103.106 13.7367 103.326 13.88C103.549 14.02 103.793 14.09 104.056 14.09ZM110.619 13.58L111.549 14.085C111.322 14.4017 111.034 14.655 110.684 14.845C110.337 15.035 109.961 15.13 109.554 15.13C109.094 15.13 108.674 15.0117 108.294 14.775C107.917 14.5383 107.616 14.2217 107.389 13.825C107.166 13.425 107.054 12.9833 107.054 12.5C107.054 12.1333 107.119 11.7917 107.249 11.475C107.379 11.155 107.557 10.875 107.784 10.635C108.014 10.3917 108.281 10.2017 108.584 10.065C108.887 9.92833 109.211 9.86 109.554 9.86C109.961 9.86 110.337 9.955 110.684 10.145C111.034 10.335 111.322 10.59 111.549 10.91L110.619 11.415C110.479 11.2483 110.316 11.1217 110.129 11.035C109.942 10.945 109.751 10.9 109.554 10.9C109.281 10.9 109.032 10.975 108.809 11.125C108.589 11.2717 108.414 11.4667 108.284 11.71C108.157 11.95 108.094 12.2133 108.094 12.5C108.094 12.7833 108.159 13.0467 108.289 13.29C108.419 13.53 108.594 13.7233 108.814 13.87C109.037 14.0167 109.284 14.09 109.554 14.09C109.761 14.09 109.957 14.0433 110.144 13.95C110.331 13.8567 110.489 13.7333 110.619 13.58ZM116.215 10H117.255V15H116.21L116.17 14.275C116.023 14.5317 115.825 14.7383 115.575 14.895C115.325 15.0517 115.03 15.13 114.69 15.13C114.323 15.13 113.978 15.0617 113.655 14.925C113.331 14.785 113.046 14.5917 112.8 14.345C112.556 14.0983 112.366 13.815 112.23 13.495C112.093 13.1717 112.025 12.825 112.025 12.455C112.025 12.0983 112.091 11.7633 112.225 11.45C112.358 11.1333 112.543 10.8567 112.78 10.62C113.016 10.3833 113.29 10.1983 113.6 10.065C113.913 9.92833 114.248 9.86 114.605 9.86C114.968 9.86 115.288 9.94333 115.565 10.11C115.845 10.2733 116.076 10.4833 116.26 10.74L116.215 10ZM114.665 14.125C114.958 14.125 115.215 14.0533 115.435 13.91C115.655 13.7633 115.825 13.5667 115.945 13.32C116.068 13.0733 116.13 12.8 116.13 12.5C116.13 12.1967 116.068 11.9217 115.945 11.675C115.821 11.4283 115.65 11.2333 115.43 11.09C115.213 10.9433 114.958 10.87 114.665 10.87C114.375 10.87 114.11 10.9433 113.87 11.09C113.63 11.2367 113.44 11.4333 113.3 11.68C113.16 11.9267 113.09 12.2 113.09 12.5C113.09 12.8033 113.161 13.0783 113.305 13.325C113.451 13.5683 113.643 13.7633 113.88 13.91C114.12 14.0533 114.381 14.125 114.665 14.125ZM120.892 11.04H119.842L119.837 15H118.797L118.802 11.04H118.007V10H118.802L118.797 8.43H119.837L119.842 10H120.892V11.04ZM121.719 10H122.759V15H121.719V10ZM122.249 9.275C122.089 9.275 121.956 9.22333 121.849 9.12C121.742 9.01667 121.689 8.88667 121.689 8.73C121.689 8.57667 121.742 8.44833 121.849 8.345C121.956 8.23833 122.087 8.185 122.244 8.185C122.397 8.185 122.527 8.23833 122.634 8.345C122.741 8.44833 122.794 8.57667 122.794 8.73C122.794 8.88667 122.741 9.01667 122.634 9.12C122.531 9.22333 122.402 9.275 122.249 9.275ZM126.068 15.13C125.608 15.13 125.188 15.0117 124.808 14.775C124.431 14.5383 124.129 14.2217 123.903 13.825C123.679 13.425 123.568 12.9833 123.568 12.5C123.568 12.1333 123.633 11.7917 123.763 11.475C123.893 11.155 124.071 10.875 124.298 10.635C124.528 10.3917 124.794 10.2017 125.098 10.065C125.401 9.92833 125.724 9.86 126.068 9.86C126.528 9.86 126.946 9.97833 127.323 10.215C127.703 10.4517 128.004 10.77 128.228 11.17C128.454 11.57 128.568 12.0133 128.568 12.5C128.568 12.8633 128.503 13.2033 128.373 13.52C128.243 13.8367 128.063 14.1167 127.833 14.36C127.606 14.6 127.341 14.7883 127.038 14.925C126.738 15.0617 126.414 15.13 126.068 15.13ZM126.068 14.09C126.344 14.09 126.593 14.0167 126.813 13.87C127.033 13.7233 127.206 13.53 127.333 13.29C127.463 13.0467 127.528 12.7833 127.528 12.5C127.528 12.21 127.461 11.9433 127.328 11.7C127.198 11.4567 127.023 11.2633 126.803 11.12C126.583 10.9733 126.338 10.9 126.068 10.9C125.794 10.9 125.546 10.9733 125.323 11.12C125.103 11.2667 124.928 11.4617 124.798 11.705C124.671 11.9483 124.608 12.2133 124.608 12.5C124.608 12.7967 124.674 13.065 124.808 13.305C124.941 13.545 125.118 13.7367 125.338 13.88C125.561 14.02 125.804 14.09 126.068 14.09ZM133.875 11.865V15H132.835V12.12C132.835 11.8967 132.78 11.6933 132.67 11.51C132.564 11.3267 132.419 11.1817 132.235 11.075C132.055 10.965 131.852 10.91 131.625 10.91C131.405 10.91 131.204 10.965 131.02 11.075C130.837 11.1817 130.69 11.3267 130.58 11.51C130.47 11.6933 130.415 11.8967 130.415 12.12V15H129.375V10H130.415V10.53C130.589 10.3233 130.802 10.16 131.055 10.04C131.309 9.92 131.582 9.86 131.875 9.86C132.245 9.86 132.582 9.95 132.885 10.13C133.189 10.31 133.429 10.5517 133.605 10.855C133.785 11.1583 133.875 11.495 133.875 11.865Z" fill="#6FC7B7"/>
</svg>
