<svg width="17" height="19" viewBox="0 0 17 19" fill="none" xmlns="http://www.w3.org/2000/svg">
<path d="M15.4643 3.26667H11.1786V2.7C11.1781 2.24928 11.0086 1.81717 10.7073 1.49847C10.406 1.17976 9.99753 1.00049 9.57143 1H7.42857C7.00247 1.00049 6.59396 1.17976 6.29267 1.49847C5.99137 1.81717 5.8219 2.24928 5.82143 2.7V3.26667H1.53571C1.39363 3.26667 1.25737 3.32637 1.15691 3.43264C1.05644 3.53891 1 3.68304 1 3.83333C1 3.98362 1.05644 4.12776 1.15691 4.23403C1.25737 4.3403 1.39363 4.4 1.53571 4.4H2.65L3.59854 16.4411C3.63411 16.8652 3.81797 17.26 4.11414 17.5483C4.41032 17.8366 4.79751 17.9977 5.2 18H11.8C12.2025 17.9977 12.5898 17.8367 12.8861 17.5484C13.1823 17.2601 13.3662 16.8652 13.4018 16.4411L14.35 4.4H15.4643C15.6064 4.4 15.7426 4.3403 15.8431 4.23403C15.9436 4.12776 16 3.98362 16 3.83333C16 3.68304 15.9436 3.53891 15.8431 3.43264C15.7426 3.32637 15.6064 3.26667 15.4643 3.26667ZM6.89286 2.7C6.89304 2.54977 6.94954 2.40575 7.04997 2.29952C7.15039 2.19329 7.28655 2.13353 7.42857 2.13333H9.57143C9.71345 2.13353 9.84961 2.19329 9.95003 2.29952C10.0505 2.40575 10.107 2.54977 10.1071 2.7V3.26667H6.89286V2.7ZM12.3337 16.347C12.3219 16.4884 12.2606 16.62 12.1619 16.7161C12.0632 16.8122 11.9341 16.8659 11.8 16.8667H5.2C5.06583 16.8659 4.93675 16.8122 4.83802 16.7161C4.73929 16.62 4.678 16.4884 4.66616 16.347L3.72513 4.4H13.2749L12.3337 16.347Z" fill="#B12B52" stroke="#B12B52" stroke-width="0.6"/>
<path d="M6.89509 6.66797C6.75301 6.66797 6.61675 6.72767 6.51628 6.83394C6.41582 6.94021 6.35938 7.08435 6.35938 7.23464V14.0346C6.35938 14.1849 6.41582 14.3291 6.51628 14.4353C6.61675 14.5416 6.75301 14.6013 6.89509 14.6013C7.03717 14.6013 7.17343 14.5416 7.2739 14.4353C7.37436 14.3291 7.4308 14.1849 7.4308 14.0346V7.23464C7.4308 7.08435 7.37436 6.94021 7.2739 6.83394C7.17343 6.72767 7.03717 6.66797 6.89509 6.66797Z" fill="#B12B52" stroke="#B12B52" stroke-width="0.6"/>
<path d="M10.106 6.66797C9.96395 6.66797 9.82769 6.72767 9.72722 6.83394C9.62675 6.94021 9.57031 7.08435 9.57031 7.23464V14.0346C9.57031 14.1849 9.62675 14.3291 9.72722 14.4353C9.82769 14.5416 9.96395 14.6013 10.106 14.6013C10.2481 14.6013 10.3844 14.5416 10.4848 14.4353C10.5853 14.3291 10.6417 14.1849 10.6417 14.0346V7.23464C10.6417 7.08435 10.5853 6.94021 10.4848 6.83394C10.3844 6.72767 10.2481 6.66797 10.106 6.66797Z" fill="#B12B52" stroke="#B12B52" stroke-width="0.6"/>
</svg>
