<svg width="48" height="18" viewBox="0 0 48 18" fill="none" xmlns="http://www.w3.org/2000/svg">
<path d="M19.7959 15V3.8H26.8199V5.752H21.7479V8.024H25.7719V9.976H21.7479V13.048H26.8199V15H19.7959ZM34.3283 3H36.2803V15H34.3283V14C34.0723 14.3573 33.7496 14.648 33.3603 14.872C32.971 15.096 32.5203 15.208 32.0083 15.208C31.427 15.208 30.883 15.0987 30.3763 14.88C29.8696 14.6613 29.4216 14.36 29.0323 13.976C28.6483 13.5867 28.347 13.1387 28.1283 12.632C27.9096 12.1253 27.8003 11.5813 27.8003 11C27.8003 10.4187 27.9096 9.87467 28.1283 9.368C28.347 8.86133 28.6483 8.416 29.0323 8.032C29.4216 7.64267 29.8696 7.33867 30.3763 7.12C30.883 6.90133 31.427 6.792 32.0083 6.792C32.5203 6.792 32.971 6.904 33.3603 7.128C33.7496 7.34667 34.0723 7.63733 34.3283 8V3ZM32.0323 13.328C32.4483 13.328 32.8163 13.224 33.1363 13.016C33.4563 12.808 33.707 12.528 33.8883 12.176C34.0696 11.8187 34.1603 11.4267 34.1603 11C34.1603 10.568 34.0696 10.176 33.8883 9.824C33.707 9.46667 33.4536 9.184 33.1283 8.976C32.8083 8.768 32.443 8.664 32.0323 8.664C31.6216 8.664 31.2456 8.77067 30.9043 8.984C30.5683 9.192 30.299 9.472 30.0963 9.824C29.899 10.176 29.8003 10.568 29.8003 11C29.8003 11.432 29.9016 11.824 30.1043 12.176C30.307 12.528 30.5763 12.808 30.9123 13.016C31.2536 13.224 31.627 13.328 32.0323 13.328ZM38.2022 7H40.1542V15H38.2022V7ZM39.1942 5.968C38.9062 5.968 38.6635 5.87467 38.4662 5.688C38.2689 5.496 38.1702 5.256 38.1702 4.968C38.1702 4.68533 38.2689 4.448 38.4662 4.256C38.6635 4.064 38.9035 3.968 39.1862 3.968C39.4689 3.968 39.7062 4.064 39.8982 4.256C40.0955 4.448 40.1942 4.68533 40.1942 4.968C40.1942 5.256 40.0982 5.496 39.9062 5.688C39.7142 5.87467 39.4769 5.968 39.1942 5.968ZM46.3652 8.952H44.8132V15H42.8612V8.952H41.6772V7H42.8612V4.488H44.8132V7H46.3652V8.952Z" fill="#B12B52"/>
<path d="M12.6721 2.57075L9.65995 0.219747C9.55466 0.135665 9.43354 0.0736073 9.30379 0.0372622C9.17404 0.000917168 9.0383 -0.00897379 8.90465 0.00817714C8.771 0.0253281 8.64217 0.0691709 8.5258 0.1371C8.40943 0.205029 8.3079 0.295659 8.22725 0.403602L1.28376 9.21988C1.18773 9.33537 1.12546 9.47514 1.10382 9.62377L0.0720739 13.9952C0.0212702 14.1838 0.0292602 14.3833 0.0949746 14.5672C0.160689 14.751 0.280993 14.9104 0.439785 15.024C0.595735 15.1417 0.781013 15.2142 0.975383 15.2337C1.16975 15.2532 1.36574 15.2189 1.54194 15.1346L5.54569 13.1141C5.68353 13.0371 5.80776 12.938 5.9134 12.8207L12.8569 4.04062C13.0182 3.81785 13.0889 3.54211 13.0545 3.26921C13.0202 2.99632 12.8835 2.74665 12.6721 2.57075ZM4.59023 11.5679L2.27736 12.7464L2.86414 10.2115L6.94221 5.02836L8.66831 6.38771L4.59023 11.5679ZM9.7734 4.95599L8.04731 3.59956L9.18271 2.16686L10.9088 3.52133L9.7734 4.95599Z" fill="#B12B52"/>
<path d="M11.9389 17.9968H0.918344C0.797424 17.998 0.677483 17.975 0.565539 17.9293C0.453594 17.8836 0.351893 17.816 0.266386 17.7305C0.180879 17.6449 0.113282 17.5433 0.0675491 17.4313C0.0218166 17.3194 -0.00113296 17.1994 4.30102e-05 17.0785C-0.00113296 16.9576 0.0218166 16.8376 0.0675491 16.7257C0.113282 16.6138 0.180879 16.512 0.266386 16.4265C0.351893 16.341 0.453594 16.2734 0.565539 16.2277C0.677483 16.182 0.797424 16.159 0.918344 16.1602H11.9389C12.0598 16.159 12.1798 16.182 12.2917 16.2277C12.4037 16.2734 12.5054 16.341 12.5909 16.4265C12.6764 16.512 12.744 16.6138 12.7897 16.7257C12.8355 16.8376 12.8584 16.9576 12.8572 17.0785C12.8584 17.1994 12.8355 17.3194 12.7897 17.4313C12.744 17.5433 12.6764 17.6449 12.5909 17.7305C12.5054 17.816 12.4037 17.8836 12.2917 17.9293C12.1798 17.975 12.0598 17.998 11.9389 17.9968Z" fill="#B12B52"/>
</svg>
