<svg width="26" height="27" viewBox="0 0 26 27" fill="none" xmlns="http://www.w3.org/2000/svg">
<path d="M4.40482 15.559C5.29141 11.3016 8.99765 8.27654 13.1667 8.27654C17.3344 8.27654 21.0407 11.3016 21.9286 15.559C21.9637 15.728 22.0646 15.876 22.2089 15.9706C22.3532 16.0652 22.5292 16.0986 22.6981 16.0634C22.8671 16.0283 23.0151 15.9274 23.1097 15.7831C23.2043 15.6388 23.2377 15.4628 23.2025 15.2938C22.1924 10.4514 17.9675 6.97656 13.1667 6.97656C8.36586 6.97656 4.14093 10.4514 3.13084 15.2938C3.09568 15.4628 3.12906 15.6388 3.22365 15.7831C3.31825 15.9274 3.4663 16.0283 3.63524 16.0634C3.80418 16.0986 3.98017 16.0652 4.12449 15.9706C4.26882 15.876 4.36966 15.728 4.40482 15.559ZM13.1537 10.8765C14.3604 10.8765 15.5177 11.3559 16.371 12.2091C17.2243 13.0624 17.7036 14.2197 17.7036 15.4264C17.7036 16.6331 17.2243 17.7904 16.371 18.6437C15.5177 19.497 14.3604 19.9764 13.1537 19.9764C11.947 19.9764 10.7897 19.497 9.9364 18.6437C9.08313 17.7904 8.60376 16.6331 8.60376 15.4264C8.60376 14.2197 9.08313 13.0624 9.9364 12.2091C10.7897 11.3559 11.947 10.8765 13.1537 10.8765Z" fill="#6A707C"/>
</svg>
