<svg width="22" height="26" viewBox="0 0 22 26" fill="none" xmlns="http://www.w3.org/2000/svg">
<g clip-path="url(#clip0_1720_2794)">
<path fill-rule="evenodd" clip-rule="evenodd" d="M1.46373 2.71205H4.97335V4.93372H3.45981C2.78373 4.93372 2.22387 5.48254 2.22387 6.14416V22.7391C2.22387 23.4018 2.78061 23.9496 3.45981 23.9496H18.5402C19.2194 23.9496 19.7761 23.4033 19.7761 22.7391V6.14416C19.7761 5.47949 19.2163 4.93372 18.5402 4.93372H17.0267V2.71205H20.5363C21.3416 2.71205 22 3.36097 22 4.14557V24.5665C22 25.3521 21.3384 26 20.5363 26H1.46373C0.661557 26 0 25.3551 0 24.5665V4.14557C0 3.3569 0.658443 2.71205 1.46373 2.71205ZM9.79882 16.9563C9.79882 16.5076 9.83151 16.1036 9.89896 15.7479C9.9633 15.3886 10.0769 15.0669 10.2383 14.7844C10.3976 14.5024 10.6181 14.2513 10.8957 14.0349C11.138 13.8474 11.3461 13.668 11.5152 13.4886C11.688 13.3118 11.8198 13.1354 11.9142 12.9611C12.0087 12.7843 12.0569 12.61 12.0569 12.4331C12.0569 12.0795 11.9817 11.8234 11.8281 11.6679C11.6745 11.5144 11.4452 11.4356 11.1406 11.4356C10.904 11.4356 10.6882 11.5256 10.4889 11.6994C10.2923 11.8737 10.1895 12.1694 10.1792 12.581H7.32019C7.33057 11.771 7.50594 11.119 7.8458 10.6256C8.18514 10.1292 8.64071 9.77039 9.21458 9.54375C9.78844 9.3166 10.4324 9.20278 11.1406 9.20278C12.3158 9.20278 13.2374 9.46143 13.9083 9.97924C14.5792 10.496 14.9159 11.2695 14.9159 12.2959C14.9159 12.7391 14.8272 13.1166 14.6549 13.4307C14.4795 13.7442 14.2507 14.0374 13.9648 14.3093C13.6763 14.5786 13.3557 14.8743 13.0054 15.1935C12.6983 15.4521 12.4938 15.7077 12.3885 15.9588C12.2837 16.2118 12.2245 16.5442 12.2079 16.9563H9.79882ZM9.45948 19.2679C9.45948 18.8563 9.60528 18.5133 9.89326 18.2414C10.1843 17.9665 10.559 17.8293 11.0228 17.8293C11.4914 17.8293 11.8686 17.9665 12.1571 18.2414C12.4425 18.5133 12.5851 18.8563 12.5851 19.2679C12.5851 19.6744 12.4425 20.0169 12.1571 20.2918C11.8686 20.5688 11.4914 20.706 11.0228 20.706C10.559 20.706 10.1843 20.5688 9.89326 20.2918C9.60528 20.0169 9.45948 19.6744 9.45948 19.2679ZM7.00108 2.00215H8.65991C8.8 0.873019 9.73033 0 10.8589 0C11.9796 0 12.9053 0.861331 13.0552 1.97827L14.9968 2.00215C15.1328 2.00215 15.2412 2.10836 15.2412 2.24098V5.48508C15.2412 5.6172 15.1328 5.72391 14.9968 5.72391H7.00316C6.87033 5.72391 6.75929 5.6172 6.75929 5.48508V2.24098C6.7567 2.10836 6.86566 2.00215 7.00108 2.00215ZM9.95033 2.98442C10.1003 3.18565 10.3151 3.38384 10.5424 3.48598C10.7281 3.54035 10.931 3.54543 11.1199 3.49512C11.4146 3.36249 11.6854 3.04337 11.8105 2.77608C11.8255 2.70036 11.8354 2.6221 11.8354 2.53673C11.8354 1.97115 11.3928 1.51228 10.8464 1.51228C10.3006 1.51228 9.85849 1.97115 9.85849 2.53673C9.86108 2.70748 9.89222 2.85891 9.95033 2.98442Z" fill="#5C5C5C"/>
</g>
<defs>
<clipPath id="clip0_1720_2794">
<rect width="22" height="26" fill="white"/>
</clipPath>
</defs>
</svg>
