<svg width="19" height="21" viewBox="0 0 19 21" fill="none" xmlns="http://www.w3.org/2000/svg">
<g clip-path="url(#clip0_1034_1192)">
<g clip-path="url(#clip1_1034_1192)">
<path d="M18.4211 10.5208V16.8366C18.4211 19.1629 16.5368 21.0471 14.2105 21.0471H5.78947C3.46316 21.0471 1.57895 19.1629 1.57895 16.8366V10.5208C1.57895 9.94182 2.05263 9.46813 2.63158 9.46813H4.70526C5.28421 9.46813 5.75789 9.94182 5.75789 10.5208V13.826C5.75899 14.385 5.98081 14.9209 6.37509 15.3172C6.76937 15.7134 7.30419 15.9379 7.86316 15.9418C8.26316 15.9418 8.66316 15.826 9.01053 15.5944L10.0105 14.9418L10.9368 15.5629C11.5789 15.9945 12.4 16.0471 13.0842 15.6787C13.7789 15.3102 14.2105 14.605 14.2105 13.8155V10.5208C14.2105 9.94182 14.6842 9.46813 15.2632 9.46813H17.3684C17.9474 9.46813 18.4211 9.94182 18.4211 10.5208ZM20 5.25761V6.31024C20 7.46813 19.4421 8.4155 17.8947 8.4155H2.10526C0.494737 8.4155 0 7.46813 0 6.31024V5.25761C0 4.09971 0.494737 3.15234 2.10526 3.15234H17.8947C19.4421 3.15234 20 4.09971 20 5.25761Z" fill="black"/>
<path d="M9.6183 3.15513H3.80777C3.63469 2.96741 3.54125 2.71982 3.54714 2.46454C3.55303 2.20927 3.65779 1.96625 3.83935 1.78671L5.33409 0.291975C5.52326 0.104914 5.77857 0 6.04461 0C6.31066 0 6.56596 0.104914 6.75514 0.291975L9.6183 3.15513ZM16.1793 3.15513H10.3688L13.232 0.291975C13.4212 0.104914 13.6765 0 13.9425 0C14.2085 0 14.4639 0.104914 14.653 0.291975L16.1478 1.78671C16.5267 2.16566 16.5372 2.76566 16.1793 3.15513ZM12.073 9.46987C12.652 9.46987 13.1257 9.94355 13.1257 10.5225V13.8172C13.1257 14.6593 12.1888 15.1646 11.4941 14.6909L10.5467 14.0593C10.3748 13.9462 10.1736 13.8858 9.96777 13.8858C9.76198 13.8858 9.56069 13.9462 9.38882 14.0593L8.39935 14.712C7.70461 15.1751 6.7783 14.6699 6.7783 13.8383V10.5225C6.7783 9.94355 7.25198 9.46987 7.83093 9.46987H12.073Z" fill="black"/>
</g>
</g>
<defs>
<clipPath id="clip0_1034_1192">
<rect width="19" height="21" fill="white"/>
</clipPath>
<clipPath id="clip1_1034_1192">
<rect width="19" height="21" fill="white"/>
</clipPath>
</defs>
</svg>
