<svg width="26" height="26" viewBox="0 0 26 26" fill="none" xmlns="http://www.w3.org/2000/svg">
<path d="M6.42191 15.467L5.59916 18.5385L2.59203 18.6021C1.69335 16.9352 1.18359 15.0281 1.18359 13.0015C1.18359 11.0417 1.6602 9.19367 2.50501 7.56641H2.50566L5.18285 8.05723L6.35562 10.7184C6.11016 11.434 5.97637 12.2021 5.97637 13.0015C5.97647 13.869 6.13361 14.7002 6.42191 15.467Z" fill="#FBBB00"/>
<path d="M24.6136 10.793C24.7493 11.5079 24.8201 12.2462 24.8201 13.0008C24.8201 13.8469 24.7311 14.6722 24.5617 15.4683C23.9864 18.1774 22.4831 20.543 20.4006 22.217L20.4 22.2163L17.0279 22.0443L16.5507 19.065C17.9325 18.2547 19.0124 16.9865 19.5812 15.4683H13.2617V10.793H19.6734H24.6136Z" fill="#518EF8"/>
<path d="M20.4015 22.2187L20.4022 22.2194C18.3769 23.8473 15.8041 24.8213 13.0035 24.8213C8.50284 24.8213 4.58987 22.3058 2.59375 18.6038L6.42362 15.4688C7.42166 18.1324 9.99115 20.0285 13.0035 20.0285C14.2983 20.0285 15.5113 19.6785 16.5522 19.0674L20.4015 22.2187Z" fill="#28B446"/>
<path d="M20.5442 3.90436L16.7156 7.03876C15.6383 6.36541 14.3649 5.97642 13.0007 5.97642C9.92014 5.97642 7.3026 7.95952 6.35456 10.7187L2.50455 7.5667H2.50391C4.4708 3.7745 8.43313 1.18359 13.0007 1.18359C15.8682 1.18359 18.4974 2.20504 20.5442 3.90436Z" fill="#F14336"/>
</svg>
