<svg width="76" height="76" viewBox="0 0 76 76" fill="none" xmlns="http://www.w3.org/2000/svg">
<circle opacity="0.5" cx="38" cy="38" r="33" stroke="#DF8331" stroke-width="10"/>
<mask id="path-2-inside-1_2978_9127" fill="white">
<path d="M4.95783 38C2.2197 38 -0.0332981 40.2291 0.322941 42.9439C1.15079 49.2529 3.5541 55.2813 7.34571 60.457C12.1184 66.9718 18.8426 71.7967 26.5429 74.2317C34.2431 76.6666 42.5189 76.585 50.1696 73.9986C56.2475 71.9439 61.6799 68.3933 65.9846 63.7074C67.8369 61.6909 67.2751 58.5717 65.0348 56.9974C62.7945 55.4232 59.7288 56.0025 57.7855 57.9315C54.7599 60.9349 51.0737 63.226 46.994 64.6052C41.3397 66.5167 35.2234 66.577 29.5325 64.7774C23.8415 62.9779 18.8719 59.412 15.3446 54.5971C12.7996 51.123 11.1009 47.1292 10.3521 42.9322C9.87124 40.2366 7.69597 38 4.95783 38Z"/>
</mask>
<path d="M4.95783 38C2.2197 38 -0.0332981 40.2291 0.322941 42.9439C1.15079 49.2529 3.5541 55.2813 7.34571 60.457C12.1184 66.9718 18.8426 71.7967 26.5429 74.2317C34.2431 76.6666 42.5189 76.585 50.1696 73.9986C56.2475 71.9439 61.6799 68.3933 65.9846 63.7074C67.8369 61.6909 67.2751 58.5717 65.0348 56.9974C62.7945 55.4232 59.7288 56.0025 57.7855 57.9315C54.7599 60.9349 51.0737 63.226 46.994 64.6052C41.3397 66.5167 35.2234 66.577 29.5325 64.7774C23.8415 62.9779 18.8719 59.412 15.3446 54.5971C12.7996 51.123 11.1009 47.1292 10.3521 42.9322C9.87124 40.2366 7.69597 38 4.95783 38Z" stroke="#DF8331" stroke-width="14" mask="url(#path-2-inside-1_2978_9127)"/>
<path d="M22.0579 44V42.4275C22.4603 42.0932 22.9221 41.705 23.4434 41.263C23.9648 40.8153 24.4946 40.3422 25.0329 39.8435C25.5713 39.3392 26.0671 38.8377 26.5204 38.339C26.9738 37.8347 27.3393 37.3587 27.6169 36.911C27.9003 36.4577 28.0419 36.0638 28.0419 35.7295C28.0419 35.3498 27.9484 35.0042 27.7614 34.6925C27.5801 34.3752 27.3336 34.123 27.0219 33.936C26.7103 33.7433 26.3646 33.647 25.9849 33.647C25.6053 33.647 25.2568 33.7433 24.9394 33.936C24.6278 34.123 24.3756 34.3752 24.1829 34.6925C23.9959 35.0042 23.9024 35.3498 23.9024 35.7295H22.1344C22.1344 35.0098 22.3101 34.361 22.6614 33.783C23.0184 33.1993 23.4859 32.7375 24.0639 32.3975C24.6476 32.0518 25.2879 31.879 25.9849 31.879C26.6876 31.879 27.3279 32.0518 27.9059 32.3975C28.4839 32.7432 28.9458 33.2078 29.2914 33.7915C29.6371 34.3695 29.8099 35.0155 29.8099 35.7295C29.8099 36.1262 29.7278 36.5342 29.5634 36.9535C29.3991 37.3728 29.1696 37.8007 28.8749 38.237C28.5859 38.6733 28.2488 39.1153 27.8634 39.563C27.4781 40.0107 27.0644 40.4583 26.6224 40.906C26.1804 41.3537 25.7299 41.7957 25.2709 42.232H29.9119V44H22.0579ZM31.6038 44V42.4275C32.0062 42.0932 32.468 41.705 32.9893 41.263C33.5107 40.8153 34.0405 40.3422 34.5788 39.8435C35.1172 39.3392 35.613 38.8377 36.0663 38.339C36.5197 37.8347 36.8852 37.3587 37.1628 36.911C37.4462 36.4577 37.5878 36.0638 37.5878 35.7295C37.5878 35.3498 37.4943 35.0042 37.3073 34.6925C37.126 34.3752 36.8795 34.123 36.5678 33.936C36.2562 33.7433 35.9105 33.647 35.5308 33.647C35.1512 33.647 34.8027 33.7433 34.4853 33.936C34.1737 34.123 33.9215 34.3752 33.7288 34.6925C33.5418 35.0042 33.4483 35.3498 33.4483 35.7295H31.6803C31.6803 35.0098 31.856 34.361 32.2073 33.783C32.5643 33.1993 33.0318 32.7375 33.6098 32.3975C34.1935 32.0518 34.8338 31.879 35.5308 31.879C36.2335 31.879 36.8738 32.0518 37.4518 32.3975C38.0298 32.7432 38.4917 33.2078 38.8373 33.7915C39.183 34.3695 39.3558 35.0155 39.3558 35.7295C39.3558 36.1262 39.2737 36.5342 39.1093 36.9535C38.945 37.3728 38.7155 37.8007 38.4208 38.237C38.1318 38.6733 37.7947 39.1153 37.4093 39.563C37.024 40.0107 36.6103 40.4583 36.1683 40.906C35.7263 41.3537 35.2758 41.7957 34.8168 42.232H39.4578V44H31.6038ZM42.0847 44L48.9527 32.1H50.9927L44.1247 44H42.0847ZM43.5212 37.0895C43.0906 37.0895 42.6939 36.9847 42.3312 36.775C41.9742 36.5597 41.6881 36.2735 41.4727 35.9165C41.2574 35.5538 41.1497 35.1543 41.1497 34.718C41.1497 34.2647 41.2574 33.8595 41.4727 33.5025C41.6937 33.1455 41.9827 32.865 42.3397 32.661C42.7024 32.4513 43.0962 32.3465 43.5212 32.3465C43.9576 32.3465 44.3542 32.4542 44.7112 32.6695C45.0682 32.8792 45.3544 33.1625 45.5697 33.5195C45.7851 33.8765 45.8927 34.276 45.8927 34.718C45.8927 35.1657 45.7822 35.568 45.5612 35.925C45.3459 36.282 45.0569 36.5653 44.6942 36.775C44.3372 36.9847 43.9462 37.0895 43.5212 37.0895ZM43.5212 35.84C43.8386 35.84 44.1049 35.7323 44.3202 35.517C44.5356 35.296 44.6432 35.0297 44.6432 34.718C44.6432 34.4007 44.5356 34.1343 44.3202 33.919C44.1049 33.698 43.8386 33.5875 43.5212 33.5875C43.2096 33.5875 42.9432 33.698 42.7222 33.919C42.5069 34.1343 42.3992 34.4007 42.3992 34.718C42.3992 35.0297 42.5069 35.296 42.7222 35.517C42.9432 35.7323 43.2096 35.84 43.5212 35.84ZM49.5732 43.7705C49.1312 43.7705 48.7289 43.66 48.3662 43.439C48.0092 43.2123 47.7231 42.9205 47.5077 42.5635C47.2981 42.2008 47.1932 41.8098 47.1932 41.3905C47.1932 40.9485 47.3037 40.549 47.5247 40.192C47.7457 39.8293 48.0347 39.5432 48.3917 39.3335C48.7544 39.1182 49.1482 39.0105 49.5732 39.0105C50.0209 39.0105 50.4232 39.121 50.7802 39.342C51.1372 39.563 51.4206 39.8548 51.6302 40.2175C51.8399 40.5802 51.9447 40.9712 51.9447 41.3905C51.9447 41.8268 51.8371 42.2263 51.6217 42.589C51.4121 42.946 51.1259 43.2322 50.7632 43.4475C50.4062 43.6628 50.0096 43.7705 49.5732 43.7705ZM49.5732 42.521C49.8792 42.521 50.1427 42.4105 50.3637 42.1895C50.5847 41.9685 50.6952 41.7022 50.6952 41.3905C50.6952 41.0788 50.5847 40.8125 50.3637 40.5915C50.1427 40.3705 49.8792 40.26 49.5732 40.26C49.2616 40.26 48.9924 40.3705 48.7657 40.5915C48.5447 40.8125 48.4342 41.0788 48.4342 41.3905C48.4342 41.7022 48.5447 41.9685 48.7657 42.1895C48.9924 42.4105 49.2616 42.521 49.5732 42.521Z" fill="#DF8331"/>
</svg>
