<svg width="76" height="76" viewBox="0 0 76 76" fill="none" xmlns="http://www.w3.org/2000/svg">
<circle opacity="0.5" cx="38" cy="38" r="33" stroke="#6FC7B7" stroke-width="10"/>
<mask id="path-2-inside-1_2978_9131" fill="white">
<path d="M33.7686 5.2299C33.4179 2.51431 30.9188 0.565337 28.2719 1.26631C25.0633 2.11604 21.9728 3.38437 19.0818 5.04392C14.754 7.52829 10.9578 10.8408 7.91015 14.7922C4.86246 18.7437 2.62291 23.2567 1.31937 28.0737C0.448609 31.2914 0.00690464 34.6027 7.87701e-05 37.9219C-0.0055521 40.66 2.51431 42.5821 5.2299 42.2314C7.94549 41.8808 9.81646 39.3841 9.94817 36.6491C10.0454 34.6307 10.3604 32.6238 10.8908 30.6639C11.8542 27.1038 13.5093 23.7684 15.7618 20.848C18.0142 17.9277 20.8198 15.4795 24.0183 13.6434C25.7792 12.6326 27.6403 11.8181 29.5678 11.2114C32.1796 10.3893 34.1192 7.94549 33.7686 5.2299Z"/>
</mask>
<path d="M33.7686 5.2299C33.4179 2.51431 30.9188 0.565337 28.2719 1.26631C25.0633 2.11604 21.9728 3.38437 19.0818 5.04392C14.754 7.52829 10.9578 10.8408 7.91015 14.7922C4.86246 18.7437 2.62291 23.2567 1.31937 28.0737C0.448609 31.2914 0.00690464 34.6027 7.87701e-05 37.9219C-0.0055521 40.66 2.51431 42.5821 5.2299 42.2314C7.94549 41.8808 9.81646 39.3841 9.94817 36.6491C10.0454 34.6307 10.3604 32.6238 10.8908 30.6639C11.8542 27.1038 13.5093 23.7684 15.7618 20.848C18.0142 17.9277 20.8198 15.4795 24.0183 13.6434C25.7792 12.6326 27.6403 11.8181 29.5678 11.2114C32.1796 10.3893 34.1192 7.94549 33.7686 5.2299Z" stroke="#6FC7B7" stroke-width="14" mask="url(#path-2-inside-1_2978_9131)"/>
<path d="M27.0996 44V40.957H22.0081V39.1805L26.6746 32.1H28.8676V39.189H29.9556V40.957H28.8676V44H27.0996ZM24.0651 39.1805L27.0996 39.189L27.0826 34.5395L24.0651 39.1805ZM31.6536 44V42.4275C32.056 42.0932 32.5178 41.705 33.0391 41.263C33.5605 40.8153 34.0903 40.3422 34.6286 39.8435C35.167 39.3392 35.6628 38.8377 36.1161 38.339C36.5695 37.8347 36.935 37.3587 37.2126 36.911C37.496 36.4577 37.6376 36.0638 37.6376 35.7295C37.6376 35.3498 37.5441 35.0042 37.3571 34.6925C37.1758 34.3752 36.9293 34.123 36.6176 33.936C36.306 33.7433 35.9603 33.647 35.5806 33.647C35.201 33.647 34.8525 33.7433 34.5351 33.936C34.2235 34.123 33.9713 34.3752 33.7786 34.6925C33.5916 35.0042 33.4981 35.3498 33.4981 35.7295H31.7301C31.7301 35.0098 31.9058 34.361 32.2571 33.783C32.6141 33.1993 33.0816 32.7375 33.6596 32.3975C34.2433 32.0518 34.8836 31.879 35.5806 31.879C36.2833 31.879 36.9236 32.0518 37.5016 32.3975C38.0796 32.7432 38.5415 33.2078 38.8871 33.7915C39.2328 34.3695 39.4056 35.0155 39.4056 35.7295C39.4056 36.1262 39.3235 36.5342 39.1591 36.9535C38.9948 37.3728 38.7653 37.8007 38.4706 38.237C38.1816 38.6733 37.8445 39.1153 37.4591 39.563C37.0738 40.0107 36.6601 40.4583 36.2181 40.906C35.7761 41.3537 35.3256 41.7957 34.8666 42.232H39.5076V44H31.6536ZM42.1345 44L49.0025 32.1H51.0425L44.1745 44H42.1345ZM43.571 37.0895C43.1404 37.0895 42.7437 36.9847 42.381 36.775C42.024 36.5597 41.7379 36.2735 41.5225 35.9165C41.3072 35.5538 41.1995 35.1543 41.1995 34.718C41.1995 34.2647 41.3072 33.8595 41.5225 33.5025C41.7435 33.1455 42.0325 32.865 42.3895 32.661C42.7522 32.4513 43.146 32.3465 43.571 32.3465C44.0074 32.3465 44.404 32.4542 44.761 32.6695C45.118 32.8792 45.4042 33.1625 45.6195 33.5195C45.8349 33.8765 45.9425 34.276 45.9425 34.718C45.9425 35.1657 45.832 35.568 45.611 35.925C45.3957 36.282 45.1067 36.5653 44.744 36.775C44.387 36.9847 43.996 37.0895 43.571 37.0895ZM43.571 35.84C43.8884 35.84 44.1547 35.7323 44.37 35.517C44.5854 35.296 44.693 35.0297 44.693 34.718C44.693 34.4007 44.5854 34.1343 44.37 33.919C44.1547 33.698 43.8884 33.5875 43.571 33.5875C43.2594 33.5875 42.993 33.698 42.772 33.919C42.5567 34.1343 42.449 34.4007 42.449 34.718C42.449 35.0297 42.5567 35.296 42.772 35.517C42.993 35.7323 43.2594 35.84 43.571 35.84ZM49.623 43.7705C49.181 43.7705 48.7787 43.66 48.416 43.439C48.059 43.2123 47.7729 42.9205 47.5575 42.5635C47.3479 42.2008 47.243 41.8098 47.243 41.3905C47.243 40.9485 47.3535 40.549 47.5745 40.192C47.7955 39.8293 48.0845 39.5432 48.4415 39.3335C48.8042 39.1182 49.198 39.0105 49.623 39.0105C50.0707 39.0105 50.473 39.121 50.83 39.342C51.187 39.563 51.4704 39.8548 51.68 40.2175C51.8897 40.5802 51.9945 40.9712 51.9945 41.3905C51.9945 41.8268 51.8869 42.2263 51.6715 42.589C51.4619 42.946 51.1757 43.2322 50.813 43.4475C50.456 43.6628 50.0594 43.7705 49.623 43.7705ZM49.623 42.521C49.929 42.521 50.1925 42.4105 50.4135 42.1895C50.6345 41.9685 50.745 41.7022 50.745 41.3905C50.745 41.0788 50.6345 40.8125 50.4135 40.5915C50.1925 40.3705 49.929 40.26 49.623 40.26C49.3114 40.26 49.0422 40.3705 48.8155 40.5915C48.5945 40.8125 48.484 41.0788 48.484 41.3905C48.484 41.7022 48.5945 41.9685 48.8155 42.1895C49.0422 42.4105 49.3114 42.521 49.623 42.521Z" fill="#6FC7B7"/>
</svg>
