<svg width="76" height="76" viewBox="0 0 76 76" fill="none" xmlns="http://www.w3.org/2000/svg">
<circle opacity="0.5" cx="38" cy="38" r="33" stroke="#9599B3" stroke-width="10"/>
<mask id="path-2-inside-1_2978_9139" fill="white">
<path d="M61.3643 61.3643C63.3005 63.3005 66.4697 63.3175 68.1375 61.1459C70.1592 58.5134 71.8318 55.6217 73.1074 52.542C75.0171 47.9316 76 42.9902 76 38C76 33.0098 75.0171 28.0684 73.1074 23.458C71.8318 20.3783 70.1592 17.4866 68.1375 14.8541C66.4697 12.6825 63.3005 12.6995 61.3643 14.6357C59.4282 16.5718 59.4715 19.6915 61.0375 21.9376C62.1933 23.5952 63.1695 25.3767 63.9465 27.2526C65.3579 30.6599 66.0843 34.3119 66.0843 38C66.0843 41.6881 65.3579 45.3401 63.9465 48.7474C63.1695 50.6233 62.1933 52.4048 61.0375 54.0624C59.4715 56.3085 59.4282 59.4282 61.3643 61.3643Z"/>
</mask>
<path d="M61.3643 61.3643C63.3005 63.3005 66.4697 63.3175 68.1375 61.1459C70.1592 58.5134 71.8318 55.6217 73.1074 52.542C75.0171 47.9316 76 42.9902 76 38C76 33.0098 75.0171 28.0684 73.1074 23.458C71.8318 20.3783 70.1592 17.4866 68.1375 14.8541C66.4697 12.6825 63.3005 12.6995 61.3643 14.6357C59.4282 16.5718 59.4715 19.6915 61.0375 21.9376C62.1933 23.5952 63.1695 25.3767 63.9465 27.2526C65.3579 30.6599 66.0843 34.3119 66.0843 38C66.0843 41.6881 65.3579 45.3401 63.9465 48.7474C63.1695 50.6233 62.1933 52.4048 61.0375 54.0624C59.4715 56.3085 59.4282 59.4282 61.3643 61.3643Z" stroke="#9599B3" stroke-width="14" mask="url(#path-2-inside-1_2978_9139)"/>
<path d="M26.3349 44V33.868H24.9154L25.3999 32.1H28.1029V44H26.3349ZM34.0378 44.221C33.3182 44.221 32.6637 44.0567 32.0743 43.728C31.485 43.3993 31.0147 42.9602 30.6633 42.4105C30.3177 41.8552 30.1448 41.2375 30.1448 40.5575C30.1448 39.9852 30.2865 39.4525 30.5698 38.9595C30.8532 38.4665 31.23 38.0585 31.7003 37.7355C31.3207 37.4522 31.0118 37.0952 30.7738 36.6645C30.5358 36.2338 30.4168 35.7692 30.4168 35.2705C30.4168 34.6472 30.5783 34.0805 30.9013 33.5705C31.23 33.0548 31.6692 32.644 32.2188 32.338C32.7685 32.032 33.3748 31.879 34.0378 31.879C34.7008 31.879 35.3072 32.032 35.8568 32.338C36.4065 32.644 36.8428 33.0548 37.1658 33.5705C37.4945 34.0805 37.6588 34.6472 37.6588 35.2705C37.6588 35.7692 37.5398 36.2338 37.3018 36.6645C37.0695 37.0952 36.7607 37.4522 36.3753 37.7355C36.857 38.0585 37.2367 38.4665 37.5143 38.9595C37.7977 39.4525 37.9393 39.9852 37.9393 40.5575C37.9393 41.2318 37.7637 41.8467 37.4123 42.402C37.061 42.9573 36.5907 43.3993 36.0013 43.728C35.412 44.0567 34.7575 44.221 34.0378 44.221ZM34.0378 42.453C34.4118 42.453 34.7518 42.368 35.0578 42.198C35.3638 42.028 35.6075 41.8013 35.7888 41.518C35.9758 41.229 36.0693 40.9088 36.0693 40.5575C36.0693 40.2118 35.9758 39.8973 35.7888 39.614C35.6075 39.325 35.3638 39.0955 35.0578 38.9255C34.7518 38.7555 34.4118 38.6705 34.0378 38.6705C33.6695 38.6705 33.3295 38.7555 33.0178 38.9255C32.7118 39.0955 32.4653 39.325 32.2783 39.614C32.097 39.8973 32.0063 40.2118 32.0063 40.5575C32.0063 40.9088 32.097 41.229 32.2783 41.518C32.4653 41.8013 32.7118 42.028 33.0178 42.198C33.3295 42.368 33.6695 42.453 34.0378 42.453ZM34.0378 36.9025C34.3608 36.9025 34.6527 36.8288 34.9133 36.6815C35.1797 36.5342 35.3922 36.3387 35.5508 36.095C35.7095 35.8457 35.7888 35.5708 35.7888 35.2705C35.7888 34.9702 35.7095 34.6982 35.5508 34.4545C35.3922 34.2108 35.1797 34.0153 34.9133 33.868C34.6527 33.7207 34.3608 33.647 34.0378 33.647C33.7148 33.647 33.4202 33.7207 33.1538 33.868C32.8932 34.0153 32.6835 34.2108 32.5248 34.4545C32.3662 34.6982 32.2868 34.9702 32.2868 35.2705C32.2868 35.5708 32.3662 35.8457 32.5248 36.095C32.6835 36.3387 32.8932 36.5342 33.1538 36.6815C33.4202 36.8288 33.7148 36.9025 34.0378 36.9025ZM40.2273 44L47.0953 32.1H49.1353L42.2673 44H40.2273ZM41.6638 37.0895C41.2331 37.0895 40.8365 36.9847 40.4738 36.775C40.1168 36.5597 39.8306 36.2735 39.6153 35.9165C39.4 35.5538 39.2923 35.1543 39.2923 34.718C39.2923 34.2647 39.4 33.8595 39.6153 33.5025C39.8363 33.1455 40.1253 32.865 40.4823 32.661C40.845 32.4513 41.2388 32.3465 41.6638 32.3465C42.1001 32.3465 42.4968 32.4542 42.8538 32.6695C43.2108 32.8792 43.497 33.1625 43.7123 33.5195C43.9276 33.8765 44.0353 34.276 44.0353 34.718C44.0353 35.1657 43.9248 35.568 43.7038 35.925C43.4885 36.282 43.1995 36.5653 42.8368 36.775C42.4798 36.9847 42.0888 37.0895 41.6638 37.0895ZM41.6638 35.84C41.9811 35.84 42.2475 35.7323 42.4628 35.517C42.6781 35.296 42.7858 35.0297 42.7858 34.718C42.7858 34.4007 42.6781 34.1343 42.4628 33.919C42.2475 33.698 41.9811 33.5875 41.6638 33.5875C41.3521 33.5875 41.0858 33.698 40.8648 33.919C40.6495 34.1343 40.5418 34.4007 40.5418 34.718C40.5418 35.0297 40.6495 35.296 40.8648 35.517C41.0858 35.7323 41.3521 35.84 41.6638 35.84ZM47.7158 43.7705C47.2738 43.7705 46.8715 43.66 46.5088 43.439C46.1518 43.2123 45.8656 42.9205 45.6503 42.5635C45.4406 42.2008 45.3358 41.8098 45.3358 41.3905C45.3358 40.9485 45.4463 40.549 45.6673 40.192C45.8883 39.8293 46.1773 39.5432 46.5343 39.3335C46.897 39.1182 47.2908 39.0105 47.7158 39.0105C48.1635 39.0105 48.5658 39.121 48.9228 39.342C49.2798 39.563 49.5631 39.8548 49.7728 40.2175C49.9825 40.5802 50.0873 40.9712 50.0873 41.3905C50.0873 41.8268 49.9796 42.2263 49.7643 42.589C49.5546 42.946 49.2685 43.2322 48.9058 43.4475C48.5488 43.6628 48.1521 43.7705 47.7158 43.7705ZM47.7158 42.521C48.0218 42.521 48.2853 42.4105 48.5063 42.1895C48.7273 41.9685 48.8378 41.7022 48.8378 41.3905C48.8378 41.0788 48.7273 40.8125 48.5063 40.5915C48.2853 40.3705 48.0218 40.26 47.7158 40.26C47.4041 40.26 47.135 40.3705 46.9083 40.5915C46.6873 40.8125 46.5768 41.0788 46.5768 41.3905C46.5768 41.7022 46.6873 41.9685 46.9083 42.1895C47.135 42.4105 47.4041 42.521 47.7158 42.521Z" fill="#9599B3"/>
</svg>
