<svg width="30" height="26" viewBox="0 0 30 26" fill="none" xmlns="http://www.w3.org/2000/svg">
<path d="M26.1184 3.60437C25.4787 2.96447 24.7192 2.45685 23.8833 2.11052C23.0474 1.76419 22.1514 1.58594 21.2466 1.58594C20.3418 1.58594 19.4459 1.76419 18.61 2.11052C17.7741 2.45685 17.0146 2.96447 16.3749 3.60437L15.048 4.93128L13.7211 3.60437C12.4253 2.33005 10.6786 1.61929 8.86121 1.62686C7.04385 1.63444 5.30309 2.35974 4.01801 3.64482C2.73294 4.9299 2.00763 6.67066 2.00006 8.48802C1.99248 10.3054 2.70325 12.0521 3.97757 13.3479L5.30448 14.6748L15.048 24.4168L24.7915 14.6734L26.1184 13.3464C26.7583 12.7068 27.2659 11.9473 27.6122 11.1114C27.9586 10.2755 28.1368 9.37951 28.1368 8.4747C28.1368 7.56988 27.9586 6.67394 27.6122 5.83803C27.2659 5.00212 26.7583 4.24264 26.1184 3.60295V3.60437Z" stroke="#5C5C5C" stroke-width="2.5" stroke-linecap="round" stroke-linejoin="round"/>
</svg>
