<svg width="13" height="12" viewBox="0 0 13 12" fill="none" xmlns="http://www.w3.org/2000/svg">
<path d="M11.6423 1.50448C11.3452 1.1947 10.9925 0.948958 10.6043 0.781298C10.2161 0.613639 9.79996 0.527344 9.37974 0.527344C8.95952 0.527344 8.54341 0.613639 8.1552 0.781298C7.76698 0.948958 7.41427 1.1947 7.1172 1.50448L6.50067 2.14708L5.88414 1.50448C5.28407 0.879037 4.47021 0.527668 3.62159 0.527668C2.77298 0.527668 1.95912 0.879037 1.35905 1.50448C0.758987 2.12992 0.421875 2.9782 0.421875 3.8627C0.421875 4.74721 0.758987 5.59549 1.35905 6.22093L1.97558 6.86353L6.50067 11.58L11.0258 6.86353L11.6423 6.22093C11.9395 5.91129 12.1753 5.54366 12.3361 5.13903C12.497 4.73439 12.5798 4.30069 12.5798 3.8627C12.5798 3.42471 12.497 2.99101 12.3361 2.58638C12.1753 2.18175 11.9395 1.81411 11.6423 1.50448Z" fill="black" stroke="#0F172A" stroke-width="0.8" stroke-linecap="round" stroke-linejoin="round"/>
</svg>
