<svg width="26" height="26" viewBox="0 0 26 26" fill="none" xmlns="http://www.w3.org/2000/svg">
<path d="M3.80033 14.645C4.68692 10.3875 8.39316 7.36248 12.5622 7.36248C16.7299 7.36248 20.4362 10.3875 21.3241 14.645C21.3592 14.8139 21.4601 14.962 21.6044 15.0565C21.7487 15.1511 21.9247 15.1845 22.0936 15.1494C22.2626 15.1142 22.4106 15.0134 22.5052 14.869C22.5998 14.7247 22.6332 14.5487 22.598 14.3798C21.588 9.53734 17.363 6.0625 12.5622 6.0625C7.76137 6.0625 3.53644 9.53734 2.52635 14.3798C2.49119 14.5487 2.52457 14.7247 2.61916 14.869C2.71375 15.0134 2.8618 15.1142 3.03074 15.1494C3.19968 15.1845 3.37568 15.1511 3.52 15.0565C3.66433 14.962 3.76517 14.8139 3.80033 14.645ZM12.5492 9.96244C13.7559 9.96244 14.9132 10.4418 15.7665 11.2951C16.6198 12.1484 17.0991 13.3057 17.0991 14.5124C17.0991 15.7191 16.6198 16.8764 15.7665 17.7297C14.9132 18.5829 13.7559 19.0623 12.5492 19.0623C11.3425 19.0623 10.1852 18.5829 9.33191 17.7297C8.47863 16.8764 7.99927 15.7191 7.99927 14.5124C7.99927 13.3057 8.47863 12.1484 9.33191 11.2951C10.1852 10.4418 11.3425 9.96244 12.5492 9.96244Z" fill="#6A707C"/>
<line x1="23.8579" y1="11.7717" x2="1.77166" y2="16.4995" stroke="#6A707C" stroke-width="1.3" stroke-linecap="round"/>
</svg>
