<svg width="25" height="24" viewBox="0 0 25 24" fill="none" xmlns="http://www.w3.org/2000/svg">
<path d="M23.9922 11.9805C23.9922 12.6836 23.4062 13.2344 22.7422 13.2344H21.4922L21.5195 19.4883C21.5195 19.5977 21.5117 19.6992 21.5 19.8047V20.4375C21.5 21.3008 20.8008 22 19.9375 22H19.3125C19.2695 22 19.2266 21.9648 19.1836 21.9961C19.1289 21.9648 19.0742 22 19.0195 22H16.8125C15.9492 22 15.25 21.3008 15.25 20.4375V17C15.25 16.3086 14.6914 15.75 14 15.75H11.5C10.8086 15.75 10.25 16.3086 10.25 17V20.4375C10.25 21.3008 9.55078 22 8.6875 22H6.50391C6.44531 22 6.38672 21.9961 6.32812 21.9922C6.28125 21.9961 6.23438 22 6.1875 22H5.5625C4.69961 22 4 21.3008 4 20.4375V16.0625C4 16.0273 4.00117 15.9883 4.00352 15.9531V13.2344H2.75195C2.04766 13.2344 1.5 12.6836 1.5 11.9805C1.5 11.6289 1.61734 11.3164 1.89102 11.043L11.9062 2.31312C12.1797 2.03914 12.4922 2 12.7656 2C13.0391 2 13.3516 2.07828 13.5898 2.27398L23.5625 11.043C23.875 11.3164 24.0352 11.6289 23.9922 11.9805Z" fill="black"/>
</svg>
