<svg width="20" height="20" viewBox="0 0 20 20" fill="none" xmlns="http://www.w3.org/2000/svg">
<path d="M18.9461 6.30447C18.936 5.54709 18.7942 4.79724 18.5271 4.08847C18.2954 3.49062 17.9416 2.94767 17.4883 2.4943C17.0349 2.04093 16.4919 1.68712 15.8941 1.45547C15.1944 1.19283 14.4553 1.05081 13.7081 1.03547C12.7461 0.992469 12.4411 0.980469 9.99909 0.980469C7.55709 0.980469 7.24409 0.980469 6.28909 1.03547C5.54225 1.05092 4.80344 1.19294 4.10409 1.45547C3.50615 1.68696 2.96311 2.04071 2.50973 2.4941C2.05634 2.94749 1.70258 3.49053 1.47109 4.08847C1.20792 4.7876 1.06622 5.52658 1.05209 6.27347C1.00909 7.23647 0.996094 7.54147 0.996094 9.98347C0.996094 12.4255 0.996094 12.7375 1.05209 13.6935C1.06709 14.4415 1.20809 15.1795 1.47109 15.8805C1.70297 16.4782 2.05699 17.021 2.51053 17.4742C2.96407 17.9274 3.50716 18.281 4.10509 18.5125C4.80253 18.7857 5.54147 18.9378 6.29009 18.9625C7.25309 19.0055 7.55809 19.0185 10.0001 19.0185C12.4421 19.0185 12.7551 19.0185 13.7101 18.9625C14.4572 18.9478 15.1965 18.8061 15.8961 18.5435C16.4938 18.3116 17.0366 17.9576 17.4899 17.5043C17.9433 17.051 18.2972 16.5082 18.5291 15.9105C18.7921 15.2105 18.9331 14.4725 18.9481 13.7235C18.9911 12.7615 19.0041 12.4565 19.0041 10.0135C19.0021 7.57147 19.0021 7.26147 18.9461 6.30447ZM9.99309 14.6015C7.43909 14.6015 5.37009 12.5325 5.37009 9.97847C5.37009 7.42447 7.43909 5.35547 9.99309 5.35547C11.2192 5.35547 12.3951 5.84253 13.262 6.70951C14.129 7.5765 14.6161 8.75237 14.6161 9.97847C14.6161 11.2046 14.129 12.3804 13.262 13.2474C12.3951 14.1144 11.2192 14.6015 9.99309 14.6015ZM14.8001 6.26247C14.6585 6.2626 14.5183 6.23481 14.3874 6.18068C14.2566 6.12655 14.1377 6.04715 14.0375 5.94702C13.9374 5.8469 13.858 5.72801 13.8039 5.59716C13.7498 5.46631 13.722 5.32607 13.7221 5.18447C13.7221 5.04297 13.75 4.90286 13.8041 4.77213C13.8583 4.6414 13.9376 4.52262 14.0377 4.42256C14.1377 4.32251 14.2565 4.24314 14.3873 4.18899C14.518 4.13484 14.6581 4.10697 14.7996 4.10697C14.9411 4.10697 15.0812 4.13484 15.2119 4.18899C15.3427 4.24314 15.4614 4.32251 15.5615 4.42256C15.6616 4.52262 15.7409 4.6414 15.7951 4.77213C15.8492 4.90286 15.8771 5.04297 15.8771 5.18447C15.8771 5.78047 15.3951 6.26247 14.8001 6.26247Z" fill="#101010"/>
<path d="M9.99519 12.9826C11.6537 12.9826 12.9982 11.6381 12.9982 9.97956C12.9982 8.32105 11.6537 6.97656 9.99519 6.97656C8.33668 6.97656 6.99219 8.32105 6.99219 9.97956C6.99219 11.6381 8.33668 12.9826 9.99519 12.9826Z" fill="#101010"/>
</svg>
