<svg width="26" height="26" viewBox="0 0 26 26" fill="none" xmlns="http://www.w3.org/2000/svg">
<path d="M11.48 11.6844L14.9554 8.20895C15.0405 8.1239 15.1081 8.0229 15.1542 7.91174C15.2003 7.80057 15.224 7.68142 15.2241 7.56107C15.2242 7.44072 15.2005 7.32154 15.1545 7.21033C15.1085 7.09912 15.0411 6.99806 14.956 6.91292C14.8709 6.82778 14.7699 6.76023 14.6588 6.71412C14.5476 6.66801 14.4285 6.64425 14.3081 6.64419C14.1878 6.64413 14.0686 6.66778 13.9574 6.71378C13.8462 6.75978 13.7451 6.82724 13.66 6.91229L8.6195 11.9528C8.53427 12.0378 8.46665 12.1389 8.42052 12.2502C8.37438 12.3614 8.35064 12.4807 8.35064 12.6011C8.35064 12.7215 8.37438 12.8408 8.42052 12.952C8.46665 13.0633 8.53427 13.1643 8.6195 13.2494L13.66 18.2899C13.7451 18.375 13.8462 18.4426 13.9574 18.4886C14.0687 18.5347 14.1879 18.5584 14.3083 18.5584C14.4287 18.5584 14.5479 18.5347 14.6592 18.4886C14.7704 18.4426 14.8715 18.375 14.9566 18.2899C15.0418 18.2047 15.1093 18.1037 15.1554 17.9924C15.2015 17.8812 15.2252 17.762 15.2252 17.6415C15.2252 17.5211 15.2015 17.4019 15.1554 17.2907C15.1093 17.1794 15.0418 17.0784 14.9566 16.9932L11.48 13.5166H21.6441C21.8872 13.5166 22.1204 13.42 22.2923 13.2481C22.4642 13.0761 22.5608 12.843 22.5608 12.5998C22.5608 12.3567 22.4642 12.1235 22.2923 11.9516C22.1204 11.7797 21.8872 11.6831 21.6441 11.6831L11.48 11.6844ZM13.3916 4.353C13.6347 4.353 13.8679 4.25642 14.0398 4.08449C14.2117 3.91257 14.3083 3.6794 14.3083 3.43627C14.3083 3.19313 14.2117 2.95996 14.0398 2.78804C13.8679 2.61612 13.6347 2.51953 13.3916 2.51953H4.6892C4.38782 2.51937 4.08935 2.57861 3.81087 2.69387C3.5324 2.80912 3.27937 2.97814 3.06626 3.19126C2.85314 3.40437 2.68412 3.6574 2.56887 3.93587C2.45361 4.21435 2.39437 4.51282 2.39453 4.8142V20.3867C2.39453 20.9953 2.63629 21.579 3.06663 22.0093C3.49696 22.4396 4.08062 22.6814 4.6892 22.6814H13.3916C13.6347 22.6814 13.8679 22.5848 14.0398 22.4129C14.2117 22.241 14.3083 22.0078 14.3083 21.7646C14.3083 21.5215 14.2117 21.2883 14.0398 21.1164C13.8679 20.9445 13.6347 20.8479 13.3916 20.8479H4.6892C4.62853 20.8481 4.56842 20.8363 4.51232 20.8132C4.45622 20.7901 4.40523 20.7561 4.36227 20.7133C4.31931 20.6704 4.28522 20.6195 4.26197 20.5635C4.23871 20.5075 4.22674 20.4474 4.22674 20.3867V4.8142C4.22674 4.75353 4.23871 4.69345 4.26197 4.63742C4.28522 4.58138 4.31931 4.53048 4.36227 4.48764C4.40523 4.44479 4.45622 4.41085 4.51232 4.38774C4.56842 4.36464 4.62853 4.35283 4.6892 4.353H13.3916Z" fill="#5C5C5C" stroke="#5C5C5C" stroke-width="0.5"/>
</svg>
