<svg width="74" height="9" viewBox="0 0 74 9" fill="none" xmlns="http://www.w3.org/2000/svg">
<path d="M2.23938 7.5V5.52H0.259375V4.48H2.23938V2.5H3.27938V4.48H5.25938V5.52H3.27938V7.5H2.23938ZM11.0075 1H12.2225L14.7675 8H13.6675L13.1825 6.67H10.0475L9.5675 8H8.4625L11.0075 1ZM10.4325 5.63H12.7975L11.6125 2.38L10.4325 5.63ZM19.1688 0.499999H20.2088V8H19.1688V7.265C19.0055 7.525 18.7922 7.735 18.5288 7.895C18.2655 8.05167 17.9572 8.13 17.6038 8.13C17.2405 8.13 16.9005 8.06167 16.5838 7.925C16.2672 7.78833 15.9872 7.6 15.7438 7.36C15.5038 7.11667 15.3155 6.83667 15.1788 6.52C15.0422 6.20333 14.9738 5.86333 14.9738 5.5C14.9738 5.13667 15.0422 4.79667 15.1788 4.48C15.3155 4.16 15.5038 3.88 15.7438 3.64C15.9872 3.39667 16.2672 3.20667 16.5838 3.07C16.9005 2.93333 17.2405 2.865 17.6038 2.865C17.9572 2.865 18.2655 2.945 18.5288 3.105C18.7922 3.26167 19.0055 3.46833 19.1688 3.725V0.499999ZM17.6138 7.125C17.9072 7.125 18.1638 7.05333 18.3838 6.91C18.6038 6.76333 18.7738 6.56667 18.8938 6.32C19.0172 6.07333 19.0788 5.8 19.0788 5.5C19.0788 5.19667 19.0172 4.92167 18.8938 4.675C18.7705 4.42833 18.5988 4.23333 18.3788 4.09C18.1622 3.94333 17.9072 3.87 17.6138 3.87C17.3238 3.87 17.0588 3.94333 16.8188 4.09C16.5822 4.23667 16.3922 4.43333 16.2488 4.68C16.1088 4.92667 16.0388 5.2 16.0388 5.5C16.0388 5.80333 16.1105 6.07833 16.2538 6.325C16.4005 6.56833 16.5922 6.76333 16.8288 6.91C17.0688 7.05333 17.3305 7.125 17.6138 7.125ZM25.2333 0.499999H26.2733V8H25.2333V7.265C25.0699 7.525 24.8566 7.735 24.5933 7.895C24.3299 8.05167 24.0216 8.13 23.6683 8.13C23.3049 8.13 22.9649 8.06167 22.6483 7.925C22.3316 7.78833 22.0516 7.6 21.8083 7.36C21.5683 7.11667 21.3799 6.83667 21.2433 6.52C21.1066 6.20333 21.0383 5.86333 21.0383 5.5C21.0383 5.13667 21.1066 4.79667 21.2433 4.48C21.3799 4.16 21.5683 3.88 21.8083 3.64C22.0516 3.39667 22.3316 3.20667 22.6483 3.07C22.9649 2.93333 23.3049 2.865 23.6683 2.865C24.0216 2.865 24.3299 2.945 24.5933 3.105C24.8566 3.26167 25.0699 3.46833 25.2333 3.725V0.499999ZM23.6783 7.125C23.9716 7.125 24.2283 7.05333 24.4483 6.91C24.6683 6.76333 24.8383 6.56667 24.9583 6.32C25.0816 6.07333 25.1433 5.8 25.1433 5.5C25.1433 5.19667 25.0816 4.92167 24.9583 4.675C24.8349 4.42833 24.6633 4.23333 24.4433 4.09C24.2266 3.94333 23.9716 3.87 23.6783 3.87C23.3883 3.87 23.1233 3.94333 22.8833 4.09C22.6466 4.23667 22.4566 4.43333 22.3133 4.68C22.1733 4.92667 22.1033 5.2 22.1033 5.5C22.1033 5.80333 22.1749 6.07833 22.3183 6.325C22.4649 6.56833 22.6566 6.76333 22.8933 6.91C23.1333 7.05333 23.3949 7.125 23.6783 7.125ZM29.8734 8V1H30.9984L34.2134 6.12V1H35.2534V8H34.1284L30.9134 2.88V8H29.8734ZM38.5871 8.13C38.1271 8.13 37.7071 8.01167 37.3271 7.775C36.9504 7.53833 36.6488 7.22167 36.4221 6.825C36.1988 6.425 36.0871 5.98333 36.0871 5.5C36.0871 5.13333 36.1521 4.79167 36.2821 4.475C36.4121 4.155 36.5904 3.875 36.8171 3.635C37.0471 3.39167 37.3138 3.20167 37.6171 3.065C37.9204 2.92833 38.2438 2.86 38.5871 2.86C38.9704 2.86 39.3221 2.94 39.6421 3.1C39.9621 3.25667 40.2354 3.475 40.4621 3.755C40.6888 4.03167 40.8554 4.35167 40.9621 4.715C41.0688 5.075 41.1004 5.45833 41.0571 5.865H37.2021C37.2454 6.095 37.3288 6.30333 37.4521 6.49C37.5788 6.67333 37.7388 6.81833 37.9321 6.925C38.1288 7.03167 38.3471 7.08667 38.5871 7.09C38.8404 7.09 39.0704 7.02667 39.2771 6.9C39.4871 6.77333 39.6588 6.59833 39.7921 6.375L40.8471 6.62C40.6471 7.06333 40.3454 7.42667 39.9421 7.71C39.5388 7.99 39.0871 8.13 38.5871 8.13ZM37.1671 5.07H40.0071C39.9738 4.83 39.8888 4.61333 39.7521 4.42C39.6188 4.22333 39.4504 4.06833 39.2471 3.955C39.0471 3.83833 38.8271 3.78 38.5871 3.78C38.3504 3.78 38.1304 3.83667 37.9271 3.95C37.7271 4.06333 37.5604 4.21833 37.4271 4.415C37.2971 4.60833 37.2104 4.82667 37.1671 5.07ZM44.0608 8H43.0258L41.3508 3H42.3708L43.5508 6.51L44.7208 3H45.7708L46.9408 6.51L48.1158 3H49.1358L47.4658 8H46.4208L45.2408 4.465L44.0608 8ZM55.6818 8.13C55.2085 8.13 54.7635 8.03667 54.3468 7.85C53.9301 7.66 53.5635 7.4 53.2468 7.07C52.9335 6.73667 52.6868 6.35 52.5068 5.91C52.3301 5.47 52.2418 5 52.2418 4.5C52.2418 4 52.3301 3.53 52.5068 3.09C52.6868 2.65 52.9335 2.265 53.2468 1.935C53.5635 1.60167 53.9301 1.34167 54.3468 1.155C54.7635 0.964999 55.2085 0.869999 55.6818 0.869999C56.2485 0.869999 56.7701 1.00167 57.2468 1.265C57.7235 1.52833 58.1185 1.87833 58.4318 2.315L57.5068 2.81C57.2901 2.53667 57.0218 2.31833 56.7018 2.155C56.3818 1.99167 56.0418 1.91 55.6818 1.91C55.3485 1.91 55.0368 1.97833 54.7468 2.115C54.4568 2.25167 54.2018 2.43833 53.9818 2.675C53.7618 2.91167 53.5901 3.18667 53.4668 3.5C53.3435 3.81333 53.2818 4.14667 53.2818 4.5C53.2818 4.85667 53.3435 5.19167 53.4668 5.505C53.5901 5.815 53.7618 6.09 53.9818 6.33C54.2051 6.56667 54.4618 6.75333 54.7518 6.89C55.0418 7.02333 55.3518 7.09 55.6818 7.09C56.0485 7.09 56.3901 7.00833 56.7068 6.845C57.0268 6.67833 57.2935 6.45833 57.5068 6.185L58.4318 6.69C58.1185 7.12667 57.7235 7.47667 57.2468 7.74C56.7701 8 56.2485 8.13 55.6818 8.13ZM63.031 3H64.071V8H63.026L62.986 7.275C62.8393 7.53167 62.641 7.73833 62.391 7.895C62.141 8.05167 61.846 8.13 61.506 8.13C61.1393 8.13 60.7943 8.06167 60.471 7.925C60.1477 7.785 59.8627 7.59167 59.616 7.345C59.3727 7.09833 59.1827 6.815 59.046 6.495C58.9093 6.17167 58.841 5.825 58.841 5.455C58.841 5.09833 58.9077 4.76333 59.041 4.45C59.1743 4.13333 59.3593 3.85667 59.596 3.62C59.8327 3.38333 60.106 3.19833 60.416 3.065C60.7293 2.92833 61.0643 2.86 61.421 2.86C61.7843 2.86 62.1043 2.94333 62.381 3.11C62.661 3.27333 62.8927 3.48333 63.076 3.74L63.031 3ZM61.481 7.125C61.7743 7.125 62.031 7.05333 62.251 6.91C62.471 6.76333 62.641 6.56667 62.761 6.32C62.8843 6.07333 62.946 5.8 62.946 5.5C62.946 5.19667 62.8843 4.92167 62.761 4.675C62.6377 4.42833 62.466 4.23333 62.246 4.09C62.0293 3.94333 61.7743 3.87 61.481 3.87C61.191 3.87 60.926 3.94333 60.686 4.09C60.446 4.23667 60.256 4.43333 60.116 4.68C59.976 4.92667 59.906 5.2 59.906 5.5C59.906 5.80333 59.9777 6.07833 60.121 6.325C60.2677 6.56833 60.4593 6.76333 60.696 6.91C60.936 7.05333 61.1977 7.125 61.481 7.125ZM65.0688 8V3H66.1088V3.53C66.2821 3.32333 66.4954 3.16 66.7488 3.04C67.0021 2.92 67.2754 2.86 67.5688 2.86C67.7554 2.86 67.9404 2.885 68.1238 2.935L67.7088 3.985C67.5788 3.935 67.4488 3.91 67.3188 3.91C67.0988 3.91 66.8971 3.965 66.7138 4.075C66.5304 4.18167 66.3838 4.32667 66.2738 4.51C66.1638 4.69333 66.1088 4.89667 66.1088 5.12V8H65.0688ZM72.3622 0.499999H73.4022V8H72.3622V7.265C72.1989 7.525 71.9855 7.735 71.7222 7.895C71.4589 8.05167 71.1505 8.13 70.7972 8.13C70.4339 8.13 70.0939 8.06167 69.7772 7.925C69.4605 7.78833 69.1805 7.6 68.9372 7.36C68.6972 7.11667 68.5089 6.83667 68.3722 6.52C68.2355 6.20333 68.1672 5.86333 68.1672 5.5C68.1672 5.13667 68.2355 4.79667 68.3722 4.48C68.5089 4.16 68.6972 3.88 68.9372 3.64C69.1805 3.39667 69.4605 3.20667 69.7772 3.07C70.0939 2.93333 70.4339 2.865 70.7972 2.865C71.1505 2.865 71.4589 2.945 71.7222 3.105C71.9855 3.26167 72.1989 3.46833 72.3622 3.725V0.499999ZM70.8072 7.125C71.1005 7.125 71.3572 7.05333 71.5772 6.91C71.7972 6.76333 71.9672 6.56667 72.0872 6.32C72.2105 6.07333 72.2722 5.8 72.2722 5.5C72.2722 5.19667 72.2105 4.92167 72.0872 4.675C71.9639 4.42833 71.7922 4.23333 71.5722 4.09C71.3555 3.94333 71.1005 3.87 70.8072 3.87C70.5172 3.87 70.2522 3.94333 70.0122 4.09C69.7755 4.23667 69.5855 4.43333 69.4422 4.68C69.3022 4.92667 69.2322 5.2 69.2322 5.5C69.2322 5.80333 69.3039 6.07833 69.4472 6.325C69.5939 6.56833 69.7855 6.76333 70.0222 6.91C70.2622 7.05333 70.5239 7.125 70.8072 7.125Z" fill="#6FC7B7"/>
</svg>
