<svg width="89" height="9" viewBox="0 0 89 9" fill="none" xmlns="http://www.w3.org/2000/svg">
<path d="M2.38 7.5V5.52H0.4V4.48H2.38V2.5H3.42V4.48H5.4V5.52H3.42V7.5H2.38ZM11.1481 1H12.3631L14.9081 8H13.8081L13.3231 6.67H10.1881L9.70813 8H8.60313L11.1481 1ZM10.5731 5.63H12.9381L11.7531 2.38L10.5731 5.63ZM19.3095 0.499999H20.3495V8H19.3095V7.265C19.1461 7.525 18.9328 7.735 18.6695 7.895C18.4061 8.05167 18.0978 8.13 17.7445 8.13C17.3811 8.13 17.0411 8.06167 16.7245 7.925C16.4078 7.78833 16.1278 7.6 15.8845 7.36C15.6445 7.11667 15.4561 6.83667 15.3195 6.52C15.1828 6.20333 15.1145 5.86333 15.1145 5.5C15.1145 5.13667 15.1828 4.79667 15.3195 4.48C15.4561 4.16 15.6445 3.88 15.8845 3.64C16.1278 3.39667 16.4078 3.20667 16.7245 3.07C17.0411 2.93333 17.3811 2.865 17.7445 2.865C18.0978 2.865 18.4061 2.945 18.6695 3.105C18.9328 3.26167 19.1461 3.46833 19.3095 3.725V0.499999ZM17.7545 7.125C18.0478 7.125 18.3045 7.05333 18.5245 6.91C18.7445 6.76333 18.9145 6.56667 19.0345 6.32C19.1578 6.07333 19.2195 5.8 19.2195 5.5C19.2195 5.19667 19.1578 4.92167 19.0345 4.675C18.9111 4.42833 18.7395 4.23333 18.5195 4.09C18.3028 3.94333 18.0478 3.87 17.7545 3.87C17.4645 3.87 17.1995 3.94333 16.9595 4.09C16.7228 4.23667 16.5328 4.43333 16.3895 4.68C16.2495 4.92667 16.1795 5.2 16.1795 5.5C16.1795 5.80333 16.2511 6.07833 16.3945 6.325C16.5411 6.56833 16.7328 6.76333 16.9695 6.91C17.2095 7.05333 17.4711 7.125 17.7545 7.125ZM25.3739 0.499999H26.4139V8H25.3739V7.265C25.2106 7.525 24.9972 7.735 24.7339 7.895C24.4706 8.05167 24.1622 8.13 23.8089 8.13C23.4456 8.13 23.1056 8.06167 22.7889 7.925C22.4722 7.78833 22.1922 7.6 21.9489 7.36C21.7089 7.11667 21.5206 6.83667 21.3839 6.52C21.2472 6.20333 21.1789 5.86333 21.1789 5.5C21.1789 5.13667 21.2472 4.79667 21.3839 4.48C21.5206 4.16 21.7089 3.88 21.9489 3.64C22.1922 3.39667 22.4722 3.20667 22.7889 3.07C23.1056 2.93333 23.4456 2.865 23.8089 2.865C24.1622 2.865 24.4706 2.945 24.7339 3.105C24.9972 3.26167 25.2106 3.46833 25.3739 3.725V0.499999ZM23.8189 7.125C24.1122 7.125 24.3689 7.05333 24.5889 6.91C24.8089 6.76333 24.9789 6.56667 25.0989 6.32C25.2222 6.07333 25.2839 5.8 25.2839 5.5C25.2839 5.19667 25.2222 4.92167 25.0989 4.675C24.9756 4.42833 24.8039 4.23333 24.5839 4.09C24.3672 3.94333 24.1122 3.87 23.8189 3.87C23.5289 3.87 23.2639 3.94333 23.0239 4.09C22.7872 4.23667 22.5972 4.43333 22.4539 4.68C22.3139 4.92667 22.2439 5.2 22.2439 5.5C22.2439 5.80333 22.3156 6.07833 22.4589 6.325C22.6056 6.56833 22.7972 6.76333 23.0339 6.91C23.2739 7.05333 23.5356 7.125 23.8189 7.125ZM30.0141 8V1H31.1391L34.3541 6.12V1H35.3941V8H34.2691L31.0541 2.88V8H30.0141ZM38.7277 8.13C38.2677 8.13 37.8477 8.01167 37.4677 7.775C37.0911 7.53833 36.7894 7.22167 36.5627 6.825C36.3394 6.425 36.2277 5.98333 36.2277 5.5C36.2277 5.13333 36.2927 4.79167 36.4227 4.475C36.5527 4.155 36.7311 3.875 36.9577 3.635C37.1877 3.39167 37.4544 3.20167 37.7577 3.065C38.0611 2.92833 38.3844 2.86 38.7277 2.86C39.1111 2.86 39.4627 2.94 39.7827 3.1C40.1027 3.25667 40.3761 3.475 40.6027 3.755C40.8294 4.03167 40.9961 4.35167 41.1027 4.715C41.2094 5.075 41.2411 5.45833 41.1977 5.865H37.3427C37.3861 6.095 37.4694 6.30333 37.5927 6.49C37.7194 6.67333 37.8794 6.81833 38.0727 6.925C38.2694 7.03167 38.4877 7.08667 38.7277 7.09C38.9811 7.09 39.2111 7.02667 39.4177 6.9C39.6277 6.77333 39.7994 6.59833 39.9327 6.375L40.9877 6.62C40.7877 7.06333 40.4861 7.42667 40.0827 7.71C39.6794 7.99 39.2277 8.13 38.7277 8.13ZM37.3077 5.07H40.1477C40.1144 4.83 40.0294 4.61333 39.8927 4.42C39.7594 4.22333 39.5911 4.06833 39.3877 3.955C39.1877 3.83833 38.9677 3.78 38.7277 3.78C38.4911 3.78 38.2711 3.83667 38.0677 3.95C37.8677 4.06333 37.7011 4.21833 37.5677 4.415C37.4377 4.60833 37.3511 4.82667 37.3077 5.07ZM44.2014 8H43.1664L41.4914 3H42.5114L43.6914 6.51L44.8614 3H45.9114L47.0814 6.51L48.2564 3H49.2764L47.6064 8H46.5614L45.3814 4.465L44.2014 8ZM54.9274 1H56.1424L58.6874 8H57.5874L57.1024 6.67H53.9674L53.4874 8H52.3824L54.9274 1ZM54.3524 5.63H56.7174L55.5324 2.38L54.3524 5.63ZM63.0888 0.499999H64.1287V8H63.0888V7.265C62.9254 7.525 62.7121 7.735 62.4488 7.895C62.1854 8.05167 61.8771 8.13 61.5238 8.13C61.1604 8.13 60.8204 8.06167 60.5038 7.925C60.1871 7.78833 59.9071 7.6 59.6638 7.36C59.4238 7.11667 59.2354 6.83667 59.0988 6.52C58.9621 6.20333 58.8938 5.86333 58.8938 5.5C58.8938 5.13667 58.9621 4.79667 59.0988 4.48C59.2354 4.16 59.4238 3.88 59.6638 3.64C59.9071 3.39667 60.1871 3.20667 60.5038 3.07C60.8204 2.93333 61.1604 2.865 61.5238 2.865C61.8771 2.865 62.1854 2.945 62.4488 3.105C62.7121 3.26167 62.9254 3.46833 63.0888 3.725V0.499999ZM61.5337 7.125C61.8271 7.125 62.0838 7.05333 62.3038 6.91C62.5238 6.76333 62.6938 6.56667 62.8138 6.32C62.9371 6.07333 62.9988 5.8 62.9988 5.5C62.9988 5.19667 62.9371 4.92167 62.8138 4.675C62.6904 4.42833 62.5188 4.23333 62.2988 4.09C62.0821 3.94333 61.8271 3.87 61.5337 3.87C61.2438 3.87 60.9788 3.94333 60.7388 4.09C60.5021 4.23667 60.3121 4.43333 60.1688 4.68C60.0288 4.92667 59.9588 5.2 59.9588 5.5C59.9588 5.80333 60.0304 6.07833 60.1738 6.325C60.3204 6.56833 60.5121 6.76333 60.7488 6.91C60.9888 7.05333 61.2504 7.125 61.5337 7.125ZM69.1532 0.499999H70.1932V8H69.1532V7.265C68.9899 7.525 68.7765 7.735 68.5132 7.895C68.2499 8.05167 67.9415 8.13 67.5882 8.13C67.2249 8.13 66.8849 8.06167 66.5682 7.925C66.2515 7.78833 65.9715 7.6 65.7282 7.36C65.4882 7.11667 65.2999 6.83667 65.1632 6.52C65.0265 6.20333 64.9582 5.86333 64.9582 5.5C64.9582 5.13667 65.0265 4.79667 65.1632 4.48C65.2999 4.16 65.4882 3.88 65.7282 3.64C65.9715 3.39667 66.2515 3.20667 66.5682 3.07C66.8849 2.93333 67.2249 2.865 67.5882 2.865C67.9415 2.865 68.2499 2.945 68.5132 3.105C68.7765 3.26167 68.9899 3.46833 69.1532 3.725V0.499999ZM67.5982 7.125C67.8915 7.125 68.1482 7.05333 68.3682 6.91C68.5882 6.76333 68.7582 6.56667 68.8782 6.32C69.0015 6.07333 69.0632 5.8 69.0632 5.5C69.0632 5.19667 69.0015 4.92167 68.8782 4.675C68.7549 4.42833 68.5832 4.23333 68.3632 4.09C68.1465 3.94333 67.8915 3.87 67.5982 3.87C67.3082 3.87 67.0432 3.94333 66.8032 4.09C66.5665 4.23667 66.3765 4.43333 66.2332 4.68C66.0932 4.92667 66.0232 5.2 66.0232 5.5C66.0232 5.80333 66.0949 6.07833 66.2382 6.325C66.3849 6.56833 66.5765 6.76333 66.8132 6.91C67.0532 7.05333 67.3149 7.125 67.5982 7.125ZM71.391 8V3H72.431V3.53C72.6043 3.32333 72.8177 3.16 73.071 3.04C73.3243 2.92 73.5977 2.86 73.891 2.86C74.0777 2.86 74.2627 2.885 74.446 2.935L74.031 3.985C73.901 3.935 73.771 3.91 73.641 3.91C73.421 3.91 73.2193 3.965 73.036 4.075C72.8527 4.18167 72.706 4.32667 72.596 4.51C72.486 4.69333 72.431 4.89667 72.431 5.12V8H71.391ZM76.9895 8.13C76.5295 8.13 76.1095 8.01167 75.7295 7.775C75.3528 7.53833 75.0511 7.22167 74.8245 6.825C74.6011 6.425 74.4895 5.98333 74.4895 5.5C74.4895 5.13333 74.5545 4.79167 74.6845 4.475C74.8145 4.155 74.9928 3.875 75.2195 3.635C75.4495 3.39167 75.7161 3.20167 76.0195 3.065C76.3228 2.92833 76.6461 2.86 76.9895 2.86C77.3728 2.86 77.7245 2.94 78.0445 3.1C78.3645 3.25667 78.6378 3.475 78.8645 3.755C79.0911 4.03167 79.2578 4.35167 79.3645 4.715C79.4711 5.075 79.5028 5.45833 79.4595 5.865H75.6045C75.6478 6.095 75.7311 6.30333 75.8545 6.49C75.9811 6.67333 76.1411 6.81833 76.3345 6.925C76.5311 7.03167 76.7495 7.08667 76.9895 7.09C77.2428 7.09 77.4728 7.02667 77.6795 6.9C77.8895 6.77333 78.0611 6.59833 78.1945 6.375L79.2495 6.62C79.0495 7.06333 78.7478 7.42667 78.3445 7.71C77.9411 7.99 77.4895 8.13 76.9895 8.13ZM75.5695 5.07H78.4095C78.3761 4.83 78.2911 4.61333 78.1545 4.42C78.0211 4.22333 77.8528 4.06833 77.6495 3.955C77.4495 3.83833 77.2295 3.78 76.9895 3.78C76.7528 3.78 76.5328 3.83667 76.3295 3.95C76.1295 4.06333 75.9628 4.21833 75.8295 4.415C75.6995 4.60833 75.6128 4.82667 75.5695 5.07ZM81.807 8.095C81.5437 8.07833 81.287 8.025 81.037 7.935C80.787 7.845 80.567 7.72333 80.377 7.57C80.1904 7.41333 80.0504 7.23 79.957 7.02L80.842 6.64C80.8854 6.73 80.9604 6.81833 81.067 6.905C81.177 6.99167 81.3054 7.06333 81.452 7.12C81.5987 7.17333 81.752 7.2 81.912 7.2C82.0687 7.2 82.2137 7.17833 82.347 7.135C82.4837 7.08833 82.5954 7.01833 82.682 6.925C82.7687 6.83167 82.812 6.72 82.812 6.59C82.812 6.44333 82.762 6.33 82.662 6.25C82.5654 6.16667 82.4437 6.10333 82.297 6.06C82.1504 6.01667 82.0037 5.975 81.857 5.935C81.5304 5.86167 81.2304 5.76167 80.957 5.635C80.687 5.505 80.472 5.34 80.312 5.14C80.152 4.93667 80.072 4.68833 80.072 4.395C80.072 4.075 80.1587 3.79833 80.332 3.565C80.5054 3.32833 80.732 3.14667 81.012 3.02C81.2954 2.89333 81.597 2.83 81.917 2.83C82.317 2.83 82.6837 2.915 83.017 3.085C83.3504 3.255 83.6054 3.48833 83.782 3.785L82.957 4.275C82.907 4.175 82.832 4.085 82.732 4.005C82.632 3.925 82.5187 3.86167 82.392 3.815C82.2654 3.765 82.1337 3.73667 81.997 3.73C81.827 3.72333 81.6687 3.74333 81.522 3.79C81.3787 3.83333 81.2637 3.90333 81.177 4C81.0904 4.09667 81.047 4.22 81.047 4.37C81.047 4.51667 81.0987 4.62667 81.202 4.7C81.3054 4.77 81.4354 4.82667 81.592 4.87C81.752 4.91333 81.9154 4.96167 82.082 5.015C82.3787 5.10833 82.657 5.22333 82.917 5.36C83.177 5.49333 83.387 5.65833 83.547 5.855C83.707 6.05167 83.7837 6.29167 83.777 6.575C83.777 6.88833 83.682 7.16333 83.492 7.4C83.3054 7.63667 83.062 7.81667 82.762 7.94C82.462 8.06333 82.1437 8.115 81.807 8.095ZM86.1332 8.095C85.8699 8.07833 85.6132 8.025 85.3632 7.935C85.1132 7.845 84.8932 7.72333 84.7032 7.57C84.5165 7.41333 84.3765 7.23 84.2832 7.02L85.1682 6.64C85.2115 6.73 85.2865 6.81833 85.3932 6.905C85.5032 6.99167 85.6315 7.06333 85.7782 7.12C85.9249 7.17333 86.0782 7.2 86.2382 7.2C86.3949 7.2 86.5399 7.17833 86.6732 7.135C86.8099 7.08833 86.9215 7.01833 87.0082 6.925C87.0949 6.83167 87.1382 6.72 87.1382 6.59C87.1382 6.44333 87.0882 6.33 86.9882 6.25C86.8915 6.16667 86.7699 6.10333 86.6232 6.06C86.4765 6.01667 86.3299 5.975 86.1832 5.935C85.8565 5.86167 85.5565 5.76167 85.2832 5.635C85.0132 5.505 84.7982 5.34 84.6382 5.14C84.4782 4.93667 84.3982 4.68833 84.3982 4.395C84.3982 4.075 84.4849 3.79833 84.6582 3.565C84.8315 3.32833 85.0582 3.14667 85.3382 3.02C85.6215 2.89333 85.9232 2.83 86.2432 2.83C86.6432 2.83 87.0099 2.915 87.3432 3.085C87.6765 3.255 87.9315 3.48833 88.1082 3.785L87.2832 4.275C87.2332 4.175 87.1582 4.085 87.0582 4.005C86.9582 3.925 86.8449 3.86167 86.7182 3.815C86.5915 3.765 86.4599 3.73667 86.3232 3.73C86.1532 3.72333 85.9949 3.74333 85.8482 3.79C85.7049 3.83333 85.5899 3.90333 85.5032 4C85.4165 4.09667 85.3732 4.22 85.3732 4.37C85.3732 4.51667 85.4249 4.62667 85.5282 4.7C85.6315 4.77 85.7615 4.82667 85.9182 4.87C86.0782 4.91333 86.2415 4.96167 86.4082 5.015C86.7049 5.10833 86.9832 5.22333 87.2432 5.36C87.5032 5.49333 87.7132 5.65833 87.8732 5.855C88.0332 6.05167 88.1099 6.29167 88.1032 6.575C88.1032 6.88833 88.0082 7.16333 87.8182 7.4C87.6315 7.63667 87.3882 7.81667 87.0882 7.94C86.7882 8.06333 86.4699 8.115 86.1332 8.095Z" fill="#6FC7B7"/>
</svg>
