<svg width="30" height="30" viewBox="0 0 30 30" fill="none" xmlns="http://www.w3.org/2000/svg">
<path d="M15.5 27C14.8701 27 14.266 26.7515 13.8206 26.3091C13.3752 25.8667 13.125 25.2667 13.125 24.641H17.875C17.875 25.2667 17.6248 25.8667 17.1794 26.3091C16.734 26.7515 16.1299 27 15.5 27ZM25 23.4615H6V22.2821L8.375 19.9231V14.0256C8.33953 12.3258 8.82579 10.6556 9.76912 9.23692C10.7016 7.88691 12.1117 6.9352 13.7188 6.57128V5.76923C13.7188 5.3 13.9064 4.84999 14.2405 4.5182C14.5745 4.1864 15.0276 4 15.5 4C15.9724 4 16.4255 4.1864 16.7595 4.5182C17.0936 4.84999 17.2812 5.3 17.2812 5.76923V6.57128C18.887 6.93822 20.2951 7.89141 21.2261 9.24164C22.1712 10.658 22.6592 12.3268 22.625 14.0256V19.9231L25 22.2821V23.4615Z" fill="black"/>
</svg>
