<svg width="50" height="15" viewBox="0 0 50 15" fill="none" xmlns="http://www.w3.org/2000/svg">
<path d="M19.0696 11V2.6H21.9616C22.4136 2.6 22.8216 2.712 23.1856 2.936C23.5536 3.16 23.8456 3.462 24.0616 3.842C24.2816 4.222 24.3916 4.642 24.3916 5.102C24.3916 5.57 24.2796 5.994 24.0556 6.374C23.8356 6.75 23.5416 7.05 23.1736 7.274C22.8056 7.498 22.4016 7.61 21.9616 7.61H20.3176V11H19.0696ZM20.3176 6.362H21.8356C22.0756 6.362 22.2936 6.302 22.4896 6.182C22.6896 6.062 22.8476 5.902 22.9636 5.702C23.0836 5.502 23.1436 5.276 23.1436 5.024C23.1436 4.772 23.0836 4.546 22.9636 4.346C22.8476 4.142 22.6896 3.982 22.4896 3.866C22.2936 3.746 22.0756 3.686 21.8356 3.686H20.3176V6.362ZM29.7493 5H30.9973V11H29.7433L29.6953 10.13C29.5193 10.438 29.2813 10.686 28.9813 10.874C28.6813 11.062 28.3273 11.156 27.9193 11.156C27.4793 11.156 27.0653 11.074 26.6773 10.91C26.2893 10.742 25.9473 10.51 25.6513 10.214C25.3593 9.918 25.1313 9.578 24.9673 9.194C24.8033 8.806 24.7213 8.39 24.7213 7.946C24.7213 7.518 24.8013 7.116 24.9613 6.74C25.1213 6.36 25.3433 6.028 25.6273 5.744C25.9113 5.46 26.2393 5.238 26.6113 5.078C26.9873 4.914 27.3893 4.832 27.8173 4.832C28.2533 4.832 28.6373 4.932 28.9693 5.132C29.3053 5.328 29.5833 5.58 29.8033 5.888L29.7493 5ZM27.8893 9.95C28.2413 9.95 28.5493 9.864 28.8133 9.692C29.0773 9.516 29.2813 9.28 29.4253 8.984C29.5733 8.688 29.6473 8.36 29.6473 8C29.6473 7.636 29.5733 7.306 29.4253 7.01C29.2773 6.714 29.0713 6.48 28.8073 6.308C28.5473 6.132 28.2413 6.044 27.8893 6.044C27.5413 6.044 27.2233 6.132 26.9353 6.308C26.6473 6.484 26.4193 6.72 26.2513 7.016C26.0833 7.312 25.9993 7.64 25.9993 8C25.9993 8.364 26.0853 8.694 26.2573 8.99C26.4333 9.282 26.6633 9.516 26.9473 9.692C27.2353 9.864 27.5493 9.95 27.8893 9.95ZM31.9546 8.75V5H33.2026V8.444C33.2026 8.712 33.2686 8.956 33.4006 9.176C33.5326 9.396 33.7086 9.572 33.9286 9.704C34.1486 9.832 34.3906 9.896 34.6546 9.896C34.9226 9.896 35.1646 9.832 35.3806 9.704C35.6006 9.572 35.7746 9.396 35.9026 9.176C36.0346 8.956 36.1006 8.712 36.1006 8.444V5H37.3486L37.3546 11H36.1066L36.1006 10.352C35.8966 10.6 35.6426 10.796 35.3386 10.94C35.0346 11.084 34.7086 11.156 34.3606 11.156C33.9166 11.156 33.5126 11.048 33.1486 10.832C32.7846 10.616 32.4946 10.326 32.2786 9.962C32.0626 9.598 31.9546 9.194 31.9546 8.75ZM40.3579 11.114C40.0419 11.094 39.7339 11.03 39.4339 10.922C39.1339 10.814 38.8699 10.668 38.6419 10.484C38.4179 10.296 38.2499 10.076 38.1379 9.824L39.1999 9.368C39.2519 9.476 39.3419 9.582 39.4699 9.686C39.6019 9.79 39.7559 9.876 39.9319 9.944C40.1079 10.008 40.2919 10.04 40.4839 10.04C40.6719 10.04 40.8459 10.014 41.0059 9.962C41.1699 9.906 41.3039 9.822 41.4079 9.71C41.5119 9.598 41.5639 9.464 41.5639 9.308C41.5639 9.132 41.5039 8.996 41.3839 8.9C41.2679 8.8 41.1219 8.724 40.9459 8.672C40.7699 8.62 40.5939 8.57 40.4179 8.522C40.0259 8.434 39.6659 8.314 39.3379 8.162C39.0139 8.006 38.7559 7.808 38.5639 7.568C38.3719 7.324 38.2759 7.026 38.2759 6.674C38.2759 6.29 38.3799 5.958 38.5879 5.678C38.7959 5.394 39.0679 5.176 39.4039 5.024C39.7439 4.872 40.1059 4.796 40.4899 4.796C40.9699 4.796 41.4099 4.898 41.8099 5.102C42.2099 5.306 42.5159 5.586 42.7279 5.942L41.7379 6.53C41.6779 6.41 41.5879 6.302 41.4679 6.206C41.3479 6.11 41.2119 6.034 41.0599 5.978C40.9079 5.918 40.7499 5.884 40.5859 5.876C40.3819 5.868 40.1919 5.892 40.0159 5.948C39.8439 6 39.7059 6.084 39.6019 6.2C39.4979 6.316 39.4459 6.464 39.4459 6.644C39.4459 6.82 39.5079 6.952 39.6319 7.04C39.7559 7.124 39.9119 7.192 40.0999 7.244C40.2919 7.296 40.4879 7.354 40.6879 7.418C41.0439 7.53 41.3779 7.668 41.6899 7.832C42.0019 7.992 42.2539 8.19 42.4459 8.426C42.6379 8.662 42.7299 8.95 42.7219 9.29C42.7219 9.666 42.6079 9.996 42.3799 10.28C42.1559 10.564 41.8639 10.78 41.5039 10.928C41.1439 11.076 40.7619 11.138 40.3579 11.114ZM46.3073 11.156C45.7553 11.156 45.2513 11.014 44.7953 10.73C44.3433 10.446 43.9813 10.066 43.7093 9.59C43.4413 9.11 43.3073 8.58 43.3073 8C43.3073 7.56 43.3853 7.15 43.5413 6.77C43.6973 6.386 43.9113 6.05 44.1833 5.762C44.4593 5.47 44.7793 5.242 45.1433 5.078C45.5073 4.914 45.8953 4.832 46.3073 4.832C46.7673 4.832 47.1893 4.928 47.5733 5.12C47.9573 5.308 48.2853 5.57 48.5573 5.906C48.8293 6.238 49.0293 6.622 49.1573 7.058C49.2853 7.49 49.3233 7.95 49.2713 8.438H44.6453C44.6973 8.714 44.7973 8.964 44.9453 9.188C45.0973 9.408 45.2893 9.582 45.5213 9.71C45.7573 9.838 46.0193 9.904 46.3073 9.908C46.6113 9.908 46.8873 9.832 47.1353 9.68C47.3873 9.528 47.5933 9.318 47.7533 9.05L49.0193 9.344C48.7793 9.876 48.4173 10.312 47.9333 10.652C47.4493 10.988 46.9073 11.156 46.3073 11.156ZM44.6033 7.484H48.0113C47.9713 7.196 47.8693 6.936 47.7053 6.704C47.5453 6.468 47.3433 6.282 47.0993 6.146C46.8593 6.006 46.5953 5.936 46.3073 5.936C46.0233 5.936 45.7593 6.004 45.5153 6.14C45.2753 6.276 45.0753 6.462 44.9153 6.698C44.7593 6.93 44.6553 7.192 44.6033 7.484Z" fill="white"/>
<path d="M7.5 1.07143C11.0357 1.07143 13.9286 3.96429 13.9286 7.5C13.9286 11.0357 11.0357 13.9286 7.5 13.9286C3.96429 13.9286 1.07143 11.0357 1.07143 7.5C1.07143 3.96429 3.96429 1.07143 7.5 1.07143ZM7.5 0C3.375 0 0 3.375 0 7.5C0 11.625 3.375 15 7.5 15C11.625 15 15 11.625 15 7.5C15 3.375 11.625 0 7.5 0Z" fill="white"/>
<path d="M7 7.14286V5H6V7.14286V7.85714V10H7V7.85714V7.14286Z" fill="white"/>
<path d="M9 7.14286V5H8V7.14286V7.85714V10H9V7.85714V7.14286Z" fill="white"/>
</svg>
