<svg width="30" height="30" viewBox="0 0 30 30" fill="none" xmlns="http://www.w3.org/2000/svg">
<path d="M14.9102 9.90823V16.147M13.2956 2.57156C14.1998 1.80948 15.6594 1.80948 16.5377 2.57156L18.5785 4.31531C18.966 4.63823 19.7023 4.90948 20.219 4.90948H22.4148C23.784 4.90948 24.9077 6.03323 24.9077 7.4024V9.59823C24.9077 10.1149 25.179 10.8382 25.5019 11.2257L27.2456 13.2666C28.0077 14.1707 28.0077 15.6303 27.2456 16.5086L25.5019 18.5495C25.179 18.937 24.9077 19.6603 24.9077 20.177V22.3728C24.9077 23.742 23.784 24.8657 22.4148 24.8657H20.219C19.7023 24.8657 18.979 25.137 18.5915 25.4599L16.5506 27.2036C15.6465 27.9657 14.1869 27.9657 13.3085 27.2036L11.2677 25.4599C10.8802 25.137 10.144 24.8657 9.64021 24.8657H7.37979C6.01062 24.8657 4.88687 23.742 4.88687 22.3728V20.1641C4.88687 19.6603 4.62854 18.9241 4.30562 18.5495L2.56187 16.4957C1.81271 15.6045 1.81271 14.1578 2.56187 13.2666L4.30562 11.2128C4.62854 10.8253 4.88687 10.102 4.88687 9.59823V7.41531C4.88687 6.04615 6.01062 4.9224 7.37979 4.9224H9.61437C10.131 4.9224 10.8544 4.65115 11.2419 4.32823L13.2956 2.57156Z" stroke="#5C5C5C" stroke-width="2.5" stroke-linecap="round" stroke-linejoin="round"/>
<path d="M15 19.4062H16" stroke="#5C5C5C" stroke-width="2" stroke-linecap="round" stroke-linejoin="round"/>
</svg>
