<svg width="17" height="18" viewBox="0 0 17 18" fill="none" xmlns="http://www.w3.org/2000/svg">
<path d="M16.9167 4.85417C16.9167 4.85417 16.9167 3.79688 15.8594 2.73958C14.8021 1.68229 13.8505 1.68229 13.8505 1.68229L12.6875 2.84531V0.625H0V17.5417H12.6875V9.08333L16.9167 4.85417ZM6.66094 12.6781L6.02656 12.0437L6.34375 10.8807L7.92969 12.4667L6.66094 12.6781ZM7.6125 10.6693L6.97812 10.0349L12.476 4.53698C12.6875 4.64271 12.899 4.85417 13.1104 5.06562L7.6125 10.6693ZM14.9078 3.26823L13.9562 4.32552C13.7448 4.11406 13.5333 4.00833 13.3219 3.79688L14.2734 2.84531C14.3792 2.95104 14.5906 3.05677 14.9078 3.26823ZM11.6302 16.4844H1.05729V1.68229H11.6302V3.9026L5.39219 10.1406L4.22917 14.4755L8.56406 13.3125L11.6302 10.1406V16.4844Z" fill="white"/>
</svg>
