<svg width="37" height="38" viewBox="0 0 37 38" fill="none" xmlns="http://www.w3.org/2000/svg">
<path d="M21.0798 3.76559L24.3038 10.2136C24.6212 10.8122 25.0738 11.3286 25.6258 11.7216C26.1646 12.1327 26.7907 12.4143 27.4558 12.5446L33.3038 13.5166C35.0438 13.8066 35.8608 14.5366 36.0878 15.2426C36.3148 15.9486 36.0768 17.0126 34.8228 18.2576L30.2758 22.8046C29.7771 23.3325 29.4177 23.9762 29.2298 24.6776C29.0196 25.3714 28.9822 26.106 29.1208 26.8176L30.4208 32.4446C30.9208 34.6096 30.4998 35.7256 29.9328 36.1446C29.3658 36.5636 28.1678 36.6176 26.2528 35.4856L20.7798 32.2486C20.1102 31.878 19.3549 31.6901 18.5898 31.7036C17.8219 31.6909 17.0639 31.8777 16.3898 32.2456H16.3848L10.9028 35.4906C9.00279 36.6196 7.80278 36.5586 7.23178 36.1416C6.66078 35.7246 6.23879 34.6056 6.73679 32.4546L8.03679 26.8266C8.1751 26.115 8.13734 25.3803 7.92679 24.6866C7.73887 23.9854 7.3798 23.3418 6.88179 22.8136L2.33479 18.2666C1.08979 17.0216 0.849791 15.9546 1.07579 15.2486C1.30179 14.5426 2.11278 13.8136 3.85278 13.5236L9.70079 12.5516C10.3602 12.4191 10.9804 12.1372 11.5138 11.7276C12.0643 11.3341 12.5155 10.8178 12.8318 10.2196L16.0568 3.7706C16.8828 2.1286 17.8378 1.55859 18.5748 1.55859C19.3118 1.55859 20.2628 2.12359 21.0798 3.76559Z" fill="#FABF35" stroke="#FABF35" stroke-width="1.5" stroke-linecap="round" stroke-linejoin="round"/>
<path d="M14.6913 18.115C14.9375 18.1148 15.1781 18.0416 15.3827 17.9047C15.5873 17.7678 15.7468 17.5733 15.8408 17.3457C15.9349 17.1182 15.9594 16.8679 15.9113 16.6265C15.8631 16.3851 15.7445 16.1633 15.5703 15.9893C15.3962 15.8153 15.1743 15.6968 14.9328 15.6489C14.6914 15.6009 14.4411 15.6256 14.2136 15.7199C13.9862 15.8141 13.7918 15.9737 13.6551 16.1784C13.5183 16.3831 13.4453 16.6238 13.4453 16.87C13.4453 17.0336 13.4775 17.1956 13.5402 17.3467C13.6028 17.4978 13.6946 17.6351 13.8103 17.7507C13.926 17.8663 14.0634 17.958 14.2146 18.0205C14.3657 18.083 14.5277 18.1151 14.6913 18.115Z" fill="#BB8300"/>
<path d="M22.6044 18.115C22.8506 18.115 23.0913 18.042 23.2961 17.9052C23.5008 17.7684 23.6604 17.5739 23.7546 17.3464C23.8488 17.1189 23.8735 16.8686 23.8254 16.6271C23.7774 16.3856 23.6588 16.1638 23.4847 15.9897C23.3106 15.8155 23.0888 15.697 22.8473 15.6489C22.6058 15.6009 22.3554 15.6255 22.1279 15.7198C21.9004 15.814 21.706 15.9736 21.5692 16.1783C21.4324 16.3831 21.3594 16.6238 21.3594 16.87C21.3594 17.2002 21.4905 17.5169 21.724 17.7503C21.9575 17.9838 22.2742 18.115 22.6044 18.115Z" fill="#BB8300"/>
<path d="M14.0787 22.6133C13.7487 22.6213 13.5547 22.9393 13.5547 23.7943C13.5547 26.6363 17.7217 26.7243 18.5307 26.7143C19.3067 26.7253 23.5217 26.6513 23.5217 23.7953C23.5217 22.9653 23.3397 22.6423 23.0277 22.6143" fill="#BB8300"/>
</svg>
