<svg width="37" height="38" viewBox="0 0 37 38" fill="none" xmlns="http://www.w3.org/2000/svg">
<path d="M21.0798 3.76659L24.3038 10.2146C24.6209 10.8137 25.0736 11.3305 25.6258 11.7236C26.1646 12.1346 26.7907 12.4162 27.4558 12.5466V12.5466L33.3038 13.5186C35.0438 13.8086 35.8608 14.5386 36.0878 15.2446C36.3148 15.9506 36.0768 17.0146 34.8228 18.2596L30.2758 22.8066C29.7771 23.3345 29.4177 23.9781 29.2298 24.6796C29.0196 25.3734 28.9822 26.108 29.1208 26.8196V26.8196L30.4208 32.4466C30.9208 34.6116 30.4998 35.7276 29.9328 36.1466C29.3658 36.5656 28.1678 36.6196 26.2528 35.4876L20.7798 32.2496C20.1102 31.879 19.3549 31.691 18.5898 31.7046C17.8219 31.6919 17.0639 31.8786 16.3898 32.2466H16.3848L10.9028 35.4916C9.00279 36.6206 7.80278 36.5596 7.23178 36.1426C6.66078 35.7256 6.23879 34.6066 6.73679 32.4556L8.03679 26.8276C8.1751 26.116 8.13734 25.3813 7.92679 24.6876C7.73887 23.9864 7.3798 23.3428 6.88179 22.8146L2.33479 18.2676C1.08979 17.0226 0.849791 15.9556 1.07579 15.2496C1.30179 14.5436 2.11278 13.8146 3.85278 13.5246L9.70079 12.5526C10.3602 12.4201 10.9804 12.1382 11.5138 11.7286C12.0643 11.3351 12.5155 10.8188 12.8318 10.2206L16.0568 3.77159C16.8828 2.12859 17.8378 1.55859 18.5748 1.55859C19.3118 1.55859 20.2628 2.12459 21.0798 3.76659Z" fill="#E8E8E8" stroke="#E8E8E8" stroke-width="1.5" stroke-linecap="round" stroke-linejoin="round"/>
<path d="M14.3973 18.115C14.6436 18.115 14.8843 18.042 15.089 17.9052C15.2938 17.7684 15.4533 17.5739 15.5476 17.3464C15.6418 17.1189 15.6665 16.8686 15.6184 16.6271C15.5704 16.3856 15.4518 16.1638 15.2777 15.9897C15.1036 15.8155 14.8817 15.697 14.6402 15.6489C14.3987 15.6009 14.1484 15.6255 13.9209 15.7198C13.6934 15.814 13.499 15.9736 13.3622 16.1783C13.2253 16.3831 13.1523 16.6238 13.1523 16.87C13.1523 17.2002 13.2835 17.5169 13.517 17.7503C13.7505 17.9838 14.0671 18.115 14.3973 18.115Z" fill="#C6C6C6"/>
<path d="M22.8544 18.115C23.1006 18.115 23.3413 18.042 23.5461 17.9052C23.7508 17.7684 23.9104 17.5739 24.0046 17.3464C24.0988 17.1189 24.1235 16.8686 24.0754 16.6271C24.0274 16.3856 23.9088 16.1638 23.7347 15.9897C23.5606 15.8155 23.3388 15.697 23.0973 15.6489C22.8558 15.6009 22.6054 15.6255 22.3779 15.7198C22.1504 15.814 21.956 15.9736 21.8192 16.1783C21.6824 16.3831 21.6094 16.6238 21.6094 16.87C21.6094 17.2002 21.7405 17.5169 21.974 17.7503C22.2075 17.9838 22.5242 18.115 22.8544 18.115Z" fill="#C6C6C6"/>
<path d="M23.4455 23.3575C23.4405 23.3795 23.4395 23.3885 23.4365 23.3995L23.4305 23.4305L23.4205 23.4875L23.3965 23.5925C23.3805 23.6595 23.3605 23.7255 23.3415 23.7925C23.3001 23.9197 23.2517 24.0446 23.1965 24.1665C23.0872 24.409 22.9531 24.6395 22.7965 24.8545C22.4734 25.2858 22.0721 25.6525 21.6135 25.9355C21.3862 26.0743 21.1485 26.1953 20.9025 26.2975C20.6605 26.3966 20.4115 26.4774 20.1575 26.5395C19.6664 26.6588 19.1629 26.7192 18.6575 26.7195C18.159 26.7246 17.6615 26.6733 17.1745 26.5665L16.9875 26.5225C16.9255 26.5085 16.8635 26.4885 16.8015 26.4715C16.7395 26.4545 16.6785 26.4375 16.6165 26.4145L16.4325 26.3505C16.1861 26.2593 15.9471 26.1493 15.7175 26.0215C15.4854 25.8912 15.2646 25.7417 15.0575 25.5745C14.8505 25.4045 14.6597 25.2157 14.4875 25.0105C14.4445 24.9595 14.4035 24.9055 14.3625 24.8535C14.3215 24.8015 14.2835 24.7455 14.2465 24.6895C14.1737 24.5782 14.1069 24.463 14.0465 24.3445C13.9839 24.2249 13.9284 24.1017 13.8805 23.9755C13.8585 23.9115 13.8345 23.8465 13.8145 23.7755C13.8045 23.7405 13.7955 23.7075 13.7855 23.6695L13.7725 23.6135L13.7645 23.5815C13.7645 23.5695 13.7645 23.5625 13.7535 23.5375C13.7089 23.411 13.7027 23.2741 13.7359 23.1441C13.769 23.0141 13.8399 22.8968 13.9396 22.807C14.0393 22.7173 14.1633 22.6591 14.2961 22.6397C14.4288 22.6204 14.5644 22.6409 14.6855 22.6985C14.7661 22.7367 14.8384 22.7904 14.8981 22.8567C14.9579 22.9229 15.0039 23.0003 15.0335 23.0845C15.0335 23.0735 15.0335 23.0775 15.0335 23.0785C15.0335 23.0795 15.0385 23.0785 15.0415 23.0785L15.0595 23.0945L15.0985 23.1335C15.1255 23.1605 15.1535 23.1895 15.1835 23.2175C15.2405 23.2745 15.3025 23.3295 15.3645 23.3835C15.4887 23.4896 15.62 23.5872 15.7575 23.6755C15.8929 23.7627 16.0335 23.8415 16.1785 23.9115C16.3245 23.98 16.4741 24.0408 16.6265 24.0935C16.7815 24.1464 16.939 24.1914 17.0985 24.2285C17.1805 24.2455 17.2605 24.2645 17.3445 24.2775C17.3865 24.2855 17.4265 24.2945 17.4685 24.3005L17.5955 24.3185C17.9448 24.3655 18.297 24.3875 18.6495 24.3845C18.9957 24.3852 19.3414 24.3588 19.6835 24.3055C19.8455 24.2795 20.0065 24.2465 20.1655 24.2055C20.3203 24.1641 20.4728 24.1148 20.6225 24.0575C20.9197 23.9414 21.2007 23.7874 21.4585 23.5995C21.5906 23.5017 21.7162 23.3955 21.8345 23.2815C21.8935 23.2235 21.9525 23.1645 22.0085 23.1035L22.0495 23.0585L22.0895 23.0135L22.1265 22.9705L22.1445 22.9535C22.1463 22.9507 22.1487 22.9483 22.1515 22.9465C22.1515 22.9465 22.1575 22.9465 22.1515 22.9515C22.1778 22.8663 22.2206 22.7871 22.2775 22.7185C22.3928 22.58 22.5581 22.4926 22.7375 22.4755C22.8261 22.4674 22.9154 22.4766 23.0005 22.5025C23.0855 22.5293 23.1646 22.572 23.2335 22.6285C23.372 22.7438 23.4594 22.9091 23.4765 23.0885C23.4846 23.1774 23.4754 23.267 23.4495 23.3525L23.4455 23.3575Z" fill="#C6C6C6"/>
</svg>
