<svg width="37" height="38" viewBox="0 0 37 38" fill="none" xmlns="http://www.w3.org/2000/svg">
<path d="M21.0798 3.76559L24.3038 10.2136C24.6212 10.8122 25.0738 11.3286 25.6258 11.7216C26.1646 12.1327 26.7907 12.4143 27.4558 12.5446V12.5446L33.3038 13.5166C35.0438 13.8066 35.8608 14.5366 36.0878 15.2426C36.3148 15.9486 36.0768 17.0126 34.8228 18.2576L30.2758 22.8046C29.7772 23.3325 29.4177 23.9762 29.2298 24.6776C29.0196 25.3714 28.9821 26.106 29.1208 26.8176V26.8176L30.4208 32.4446C30.9208 34.6096 30.4998 35.7256 29.9328 36.1446C29.3658 36.5636 28.1678 36.6176 26.2528 35.4856L20.7798 32.2486C20.1102 31.878 19.355 31.6901 18.5898 31.7036C17.8219 31.6909 17.0639 31.8777 16.3898 32.2456H16.3848L10.9028 35.4906C9.00279 36.6196 7.8028 36.5586 7.2318 36.1416C6.6608 35.7246 6.2388 34.6056 6.7368 32.4546L8.03679 26.8266C8.1751 26.115 8.13732 25.3803 7.92677 24.6866C7.73885 23.9854 7.3798 23.3418 6.88179 22.8136L2.33479 18.2666C1.08979 17.0216 0.849791 15.9546 1.07579 15.2486C1.30179 14.5426 2.11278 13.8136 3.85278 13.5236L9.70079 12.5516C10.3602 12.4191 10.9804 12.1372 11.5138 11.7276C12.0643 11.3341 12.5156 10.8178 12.8318 10.2196L16.0568 3.7706C16.8828 2.1286 17.8378 1.55859 18.5748 1.55859C19.3118 1.55859 20.2628 2.12359 21.0798 3.76559Z" fill="#FABF35" stroke="#FABF35" stroke-width="1.5" stroke-linecap="round" stroke-linejoin="round"/>
<path d="M13.8114 18.115C14.0576 18.115 14.2983 18.042 14.5031 17.9052C14.7078 17.7684 14.8674 17.5739 14.9616 17.3464C15.0559 17.1189 15.0805 16.8686 15.0325 16.6271C14.9844 16.3856 14.8659 16.1638 14.6917 15.9897C14.5176 15.8155 14.2958 15.697 14.0543 15.6489C13.8128 15.6009 13.5625 15.6255 13.335 15.7198C13.1075 15.814 12.913 15.9736 12.7762 16.1783C12.6394 16.3831 12.5664 16.6238 12.5664 16.87C12.5663 17.0335 12.5984 17.1955 12.6609 17.3466C12.7234 17.4977 12.8151 17.635 12.9308 17.7506C13.0464 17.8663 13.1837 17.958 13.3348 18.0205C13.4859 18.083 13.6479 18.1151 13.8114 18.115V18.115Z" fill="#BB8300"/>
<path d="M23.2802 18.115C23.5264 18.115 23.7671 18.042 23.9719 17.9052C24.1766 17.7684 24.3362 17.5739 24.4304 17.3464C24.5246 17.1189 24.5493 16.8686 24.5013 16.6271C24.4532 16.3856 24.3346 16.1638 24.1605 15.9897C23.9864 15.8155 23.7646 15.697 23.5231 15.6489C23.2816 15.6009 23.0312 15.6255 22.8037 15.7198C22.5762 15.814 22.3818 15.9736 22.245 16.1783C22.1082 16.3831 22.0352 16.6238 22.0352 16.87C22.0352 17.2002 22.1663 17.5169 22.3998 17.7503C22.6333 17.9838 22.95 18.115 23.2802 18.115Z" fill="#BB8300"/>
<path d="M13.3257 24.9166C13.5467 24.8596 13.7667 24.8166 13.9877 24.7736C14.2087 24.7306 14.4298 24.6966 14.6508 24.6636C15.0928 24.5976 15.5337 24.5486 15.9757 24.5076C16.8597 24.4266 17.7427 24.3896 18.6257 24.3836C19.5087 24.3776 20.3927 24.4056 21.2767 24.4756C21.4977 24.4926 21.7178 24.5126 21.9388 24.5366C22.1598 24.5606 22.3807 24.5876 22.6017 24.6166C22.8227 24.6456 23.0437 24.6806 23.2647 24.7166C23.4857 24.7526 23.7057 24.7976 23.9267 24.8526C24.081 24.8909 24.2181 24.9798 24.316 25.105C24.4139 25.2302 24.4671 25.3846 24.4671 25.5436C24.4671 25.7026 24.4139 25.857 24.316 25.9822C24.2181 26.1074 24.081 26.1963 23.9267 26.2346C23.7057 26.2896 23.4847 26.3346 23.2647 26.3716C23.0447 26.4086 22.8227 26.4436 22.6017 26.4716C22.3807 26.4996 22.1598 26.5286 21.9388 26.5506C21.7178 26.5726 21.4977 26.5956 21.2767 26.6126C20.3927 26.6826 19.5097 26.7126 18.6257 26.7046C17.7417 26.6966 16.8597 26.6616 15.9757 26.5806C15.5337 26.5396 15.0928 26.4906 14.6508 26.4246C14.4298 26.3916 14.2087 26.3566 13.9877 26.3146C13.7667 26.2726 13.5467 26.2286 13.3257 26.1716C13.1856 26.1356 13.0614 26.054 12.9727 25.9397C12.8841 25.8254 12.8359 25.6848 12.8359 25.5401C12.8359 25.3954 12.8841 25.2548 12.9727 25.1405C13.0614 25.0262 13.1856 24.9446 13.3257 24.9086V24.9166Z" fill="#BB8300"/>
</svg>
