<svg width="37" height="38" viewBox="0 0 37 38" fill="none" xmlns="http://www.w3.org/2000/svg">
<path d="M21.0798 3.76559L24.3038 10.2136C24.6212 10.8122 25.0738 11.3286 25.6258 11.7216C26.1646 12.1327 26.7907 12.4143 27.4558 12.5446V12.5446L33.3038 13.5166C35.0438 13.8066 35.8608 14.5366 36.0878 15.2426C36.3148 15.9486 36.0768 17.0126 34.8228 18.2576L30.2758 22.8046C29.7772 23.3325 29.4177 23.9762 29.2298 24.6776C29.0196 25.3714 28.9821 26.106 29.1208 26.8176L30.4208 32.4446C30.9208 34.6096 30.4998 35.7256 29.9328 36.1446C29.3658 36.5636 28.1678 36.6176 26.2528 35.4856L20.7798 32.2486C20.1102 31.878 19.355 31.6901 18.5898 31.7036C17.8219 31.6909 17.0639 31.8777 16.3898 32.2456H16.3848L10.9028 35.4906C9.00279 36.6196 7.8028 36.5586 7.2318 36.1416C6.6608 35.7246 6.2388 34.6056 6.7368 32.4546L8.03679 26.8266C8.1751 26.115 8.13732 25.3803 7.92677 24.6866C7.73885 23.9854 7.3798 23.3418 6.88179 22.8136L2.33479 18.2666C1.08979 17.0216 0.849791 15.9546 1.07579 15.2486C1.30179 14.5426 2.1128 13.8136 3.8528 13.5236L9.70079 12.5516C10.3602 12.4191 10.9804 12.1372 11.5138 11.7276C12.0643 11.3341 12.5156 10.8178 12.8318 10.2196L16.0568 3.7706C16.8828 2.1286 17.8378 1.55859 18.5748 1.55859C19.3118 1.55859 20.2628 2.12359 21.0798 3.76559Z" fill="#FABF35" stroke="#FABF35" stroke-width="1.5" stroke-linecap="round" stroke-linejoin="round"/>
<path d="M14.2489 18.115C14.4951 18.115 14.7358 18.042 14.9406 17.9052C15.1453 17.7684 15.3049 17.5739 15.3991 17.3464C15.4934 17.1189 15.518 16.8686 15.47 16.6271C15.422 16.3856 15.3034 16.1638 15.1293 15.9897C14.9552 15.8155 14.7333 15.697 14.4918 15.6489C14.2503 15.6009 14 15.6255 13.7725 15.7198C13.545 15.814 13.3505 15.9736 13.2137 16.1783C13.0769 16.3831 13.0039 16.6238 13.0039 16.87C13.0038 17.0335 13.0359 17.1955 13.0984 17.3466C13.1609 17.4977 13.2526 17.635 13.3683 17.7506C13.4839 17.8663 13.6212 17.958 13.7723 18.0205C13.9234 18.083 14.0854 18.1151 14.2489 18.115V18.115Z" fill="#BB8300"/>
<path d="M22.9677 18.115C23.2139 18.115 23.4546 18.042 23.6593 17.9052C23.8641 17.7684 24.0237 17.5739 24.1179 17.3464C24.2121 17.1189 24.2368 16.8686 24.1887 16.6271C24.1407 16.3856 24.0221 16.1638 23.848 15.9897C23.6739 15.8155 23.452 15.697 23.2105 15.6489C22.969 15.6009 22.7187 15.6255 22.4912 15.7198C22.2637 15.814 22.0693 15.9736 21.9325 16.1783C21.7957 16.3831 21.7227 16.6238 21.7227 16.87C21.7225 17.0335 21.7546 17.1955 21.8171 17.3466C21.8797 17.4977 21.9714 17.635 22.087 17.7506C22.2026 17.8663 22.3399 17.958 22.4911 18.0205C22.6422 18.083 22.8041 18.1151 22.9677 18.115V18.115Z" fill="#BB8300"/>
<path d="M13.6039 25.8101C13.6077 25.7956 13.6107 25.7809 13.613 25.766L13.6189 25.7341L13.6299 25.6761C13.6369 25.6381 13.6459 25.603 13.6529 25.567C13.6699 25.498 13.6889 25.43 13.7089 25.367C13.7504 25.2355 13.7992 25.1063 13.8549 24.9801C13.9676 24.7284 14.106 24.4892 14.2679 24.266C14.598 23.8161 15.0103 23.4327 15.4829 23.136C15.7171 22.9892 15.9629 22.8618 16.2179 22.755C16.4683 22.6511 16.726 22.5659 16.9889 22.5001C17.498 22.3737 18.0204 22.3095 18.5449 22.309C19.0624 22.303 19.5789 22.357 20.0839 22.47L20.277 22.516C20.342 22.531 20.4059 22.5521 20.4699 22.5701C20.5979 22.6061 20.7249 22.6521 20.8519 22.6981C21.1075 22.7933 21.3549 22.909 21.5919 23.044C21.8322 23.1798 22.06 23.3365 22.2729 23.5121C22.4863 23.6892 22.6822 23.8865 22.8579 24.1011C23.033 24.315 23.1849 24.547 23.3109 24.7931C23.3749 24.9168 23.431 25.0443 23.4789 25.175C23.5029 25.241 23.5259 25.3091 23.5459 25.3751C23.5559 25.4111 23.5659 25.4441 23.5749 25.4841L23.5889 25.5421L23.596 25.5751C23.596 25.5871 23.5959 25.595 23.6079 25.619C23.6584 25.7508 23.6678 25.8948 23.6349 26.032C23.6021 26.1693 23.5285 26.2934 23.4239 26.3881C23.3544 26.4507 23.2732 26.499 23.1849 26.5301C23.0965 26.5609 23.0028 26.5737 22.9094 26.5677C22.816 26.5617 22.7247 26.537 22.6409 26.4951C22.5573 26.4532 22.4828 26.395 22.422 26.3239C22.3612 26.2528 22.3153 26.1702 22.2869 26.0811C22.2869 26.0921 22.2869 26.087 22.2869 26.087C22.2869 26.087 22.2819 26.0871 22.2789 26.0811L22.2599 26.0641L22.2199 26.0231C22.1919 25.9941 22.1629 25.9641 22.1329 25.9351C22.0739 25.8751 22.0099 25.8171 21.9459 25.7601C21.6915 25.539 21.4095 25.3517 21.1069 25.203C20.9567 25.131 20.8029 25.0669 20.6459 25.011L20.527 24.9711L20.4059 24.9351C20.3656 24.9215 20.3245 24.9101 20.2829 24.901C20.2419 24.89 20.2019 24.8781 20.1599 24.8701C20.0759 24.8521 19.9929 24.831 19.9069 24.817C19.8639 24.809 19.8219 24.8 19.7789 24.794L19.6479 24.7751C19.2874 24.7252 18.9238 24.7018 18.5599 24.705C17.8664 24.6924 17.1768 24.8105 16.527 25.0531C16.2208 25.1765 15.9317 25.3388 15.6669 25.5361C15.5306 25.639 15.401 25.7505 15.2789 25.8701C15.2179 25.9311 15.1569 25.9941 15.0999 26.0581L15.0579 26.1051L15.0169 26.1521L14.9779 26.1961L14.9599 26.2151C14.9577 26.2179 14.955 26.2203 14.9519 26.2221C14.9519 26.2221 14.9469 26.2281 14.9519 26.2221C14.9115 26.3544 14.8328 26.4717 14.7257 26.5593C14.6185 26.6469 14.4879 26.7008 14.3502 26.7142C14.2124 26.7276 14.0739 26.6998 13.9519 26.6345C13.8299 26.5691 13.7301 26.4691 13.665 26.3471C13.6213 26.2661 13.5942 26.1773 13.5853 26.0858C13.5764 25.9943 13.5858 25.9019 13.613 25.8141L13.6039 25.8101Z" fill="#BB8300"/>
</svg>
