<svg width="37" height="38" viewBox="0 0 37 38" fill="none" xmlns="http://www.w3.org/2000/svg">
<path d="M21.0798 3.76559L24.3038 10.2136C24.6212 10.8122 25.0738 11.3286 25.6258 11.7216C26.1646 12.1327 26.7907 12.4143 27.4558 12.5446V12.5446L33.3038 13.5166C35.0438 13.8066 35.8608 14.5366 36.0878 15.2426C36.3148 15.9486 36.0768 17.0126 34.8228 18.2576L30.2758 22.8046C29.7772 23.3325 29.4177 23.9762 29.2298 24.6776C29.0196 25.3714 28.9821 26.106 29.1208 26.8176V26.8176L30.4208 32.4446C30.9208 34.6096 30.4998 35.7256 29.9328 36.1446C29.3658 36.5636 28.1678 36.6176 26.2528 35.4856L20.7798 32.2486C20.1102 31.878 19.355 31.6901 18.5898 31.7036C17.8219 31.6909 17.0639 31.8777 16.3898 32.2456H16.3848L10.9028 35.4906C9.00279 36.6196 7.8028 36.5586 7.2318 36.1416C6.6608 35.7246 6.2388 34.6056 6.7368 32.4546L8.03679 26.8266C8.1751 26.115 8.13732 25.3803 7.92677 24.6866C7.73885 23.9854 7.3798 23.3418 6.88179 22.8136L2.33479 18.2666C1.08979 17.0216 0.849791 15.9546 1.07579 15.2486C1.30179 14.5426 2.1128 13.8136 3.8528 13.5236L9.70079 12.5516C10.3602 12.4191 10.9804 12.1372 11.5138 11.7276C12.0643 11.3341 12.5156 10.8178 12.8318 10.2196L16.0568 3.7706C16.8828 2.1286 17.8378 1.55859 18.5748 1.55859C19.3118 1.55859 20.2628 2.12359 21.0798 3.76559Z" fill="#FABF35" stroke="#FABF35" stroke-width="1.5" stroke-linecap="round" stroke-linejoin="round"/>
<path d="M14.5802 17.887C14.8039 17.887 15.0226 17.8207 15.2086 17.6964C15.3946 17.5721 15.5395 17.3955 15.6252 17.1888C15.7108 16.9822 15.7331 16.7548 15.6895 16.5354C15.6458 16.316 15.5381 16.1144 15.38 15.9563C15.2218 15.7981 15.0203 15.6904 14.8009 15.6467C14.5815 15.6031 14.3541 15.6255 14.1474 15.7111C13.9408 15.7967 13.7641 15.9417 13.6398 16.1277C13.5156 16.3137 13.4492 16.5323 13.4492 16.756C13.4495 17.0559 13.5687 17.3434 13.7808 17.5555C13.9928 17.7675 14.2804 17.8867 14.5802 17.887Z" fill="#BB8300"/>
<path d="M22.4933 17.887C22.717 17.8872 22.9358 17.821 23.1219 17.6969C23.308 17.5727 23.4531 17.3962 23.5389 17.1895C23.6246 16.9829 23.6472 16.7554 23.6037 16.536C23.5601 16.3165 23.4525 16.1149 23.2944 15.9566C23.1362 15.7983 22.9347 15.6905 22.7153 15.6468C22.4959 15.6031 22.2684 15.6254 22.0617 15.711C21.855 15.7966 21.6783 15.9415 21.554 16.1275C21.4296 16.3136 21.3633 16.5323 21.3633 16.756C21.3633 17.0558 21.4823 17.3433 21.6942 17.5554C21.9061 17.7675 22.1935 17.8867 22.4933 17.887V17.887Z" fill="#BB8300"/>
<path d="M14.0787 26.7159C13.7487 26.7069 13.5547 26.3899 13.5547 25.5339C13.5547 22.6929 17.7217 22.6049 18.5307 22.6139C19.3067 22.6039 23.5217 22.6769 23.5217 25.5339C23.5217 26.3629 23.3397 26.6869 23.0277 26.7139" fill="#BB8300"/>
</svg>
